<svg width="20" height="20" viewBox="0 0 20 20" fill="none" xmlns="http://www.w3.org/2000/svg">
<path fill-rule="evenodd" clip-rule="evenodd" d="M8.80078 1.875H11.1996C11.2942 1.87499 11.3678 1.87498 11.4375 1.87919C12.3211 1.93271 13.095 2.49046 13.4252 3.31188C13.4512 3.37663 13.4745 3.44648 13.5044 3.53623L13.5312 3.6165C13.5469 3.66375 13.5514 3.67712 13.5552 3.68765C13.7029 4.09582 14.0666 4.37982 14.446 4.41676C14.4739 4.41827 14.5017 4.41984 14.5292 4.42146C15.9262 4.50388 17.0011 4.73648 17.799 5.53437C18.4226 6.15801 18.6994 6.9488 18.8307 7.92582C18.9583 8.87516 18.9583 10.0882 18.9583 11.6197V11.7137C18.9583 13.2451 18.9583 14.4582 18.8307 15.4075C18.6994 16.3845 18.4226 17.1753 17.799 17.799C17.1753 18.4226 16.3845 18.6994 15.4075 18.8307C14.4582 18.9584 13.2451 18.9584 11.7137 18.9583H8.28631C6.75485 18.9584 5.54182 18.9584 4.59247 18.8307C3.61545 18.6994 2.82466 18.4226 2.20103 17.799C1.57739 17.1753 1.30063 16.3845 1.16927 15.4075C1.04163 14.4582 1.04164 13.2452 1.04166 11.7137V11.6197C1.04164 10.0882 1.04163 8.87516 1.16927 7.92582C1.30063 6.9488 1.57739 6.15801 2.20103 5.53437C2.99892 4.73647 4.07378 4.50388 5.4708 4.42146C5.49833 4.41984 5.52605 4.41827 5.55396 4.41676C5.93359 4.3798 6.29754 4.09568 6.44513 3.68767C6.44897 3.67707 6.45338 3.66398 6.4692 3.61651L6.49597 3.5362C6.52586 3.44648 6.54914 3.37662 6.57516 3.31188C6.90538 2.49046 7.67921 1.93271 8.56291 1.87919C8.63256 1.87498 8.70619 1.87499 8.80078 1.875ZM5.53494 5.66985C5.57195 5.66872 5.60874 5.66664 5.64528 5.66365C6.37228 5.62522 7.24764 5.625 8.33332 5.625H11.6667C12.7523 5.625 13.6277 5.62522 14.3547 5.66365C14.3912 5.66664 14.428 5.66872 14.465 5.66985C15.8016 5.74955 16.4634 5.96663 16.9151 6.41826C17.0754 6.57859 17.2065 6.76587 17.3125 7.00124C15.7899 7.98971 14.7895 8.62737 13.9471 9.04821C13.8918 8.75968 13.638 8.54167 13.3333 8.54167C12.9881 8.54167 12.7083 8.82149 12.7083 9.16667V9.5483C10.9421 10.0813 9.05785 10.0812 7.29166 9.54826V9.16667C7.29166 8.82149 7.01183 8.54167 6.66666 8.54167C6.362 8.54167 6.10826 8.75965 6.05288 9.04815C5.2105 8.6273 4.21008 7.98963 2.68753 7.00117C2.79346 6.76584 2.92459 6.57858 3.08491 6.41826C3.53654 5.96663 4.19839 5.74955 5.53494 5.66985ZM2.3836 8.29418C2.29279 9.12452 2.29166 10.1994 2.29166 11.6667C2.29166 13.2557 2.29298 14.3846 2.40812 15.241C2.52084 16.0794 2.73223 16.5624 3.08491 16.9151C3.43758 17.2678 3.92062 17.4792 4.75903 17.5919C5.61542 17.707 6.74431 17.7083 8.33332 17.7083H11.6667C13.2557 17.7083 14.3846 17.707 15.2409 17.5919C16.0794 17.4792 16.5624 17.2678 16.9151 16.9151C17.2677 16.5624 17.4791 16.0794 17.5919 15.241C17.707 14.3846 17.7083 13.2557 17.7083 11.6667C17.7083 10.1995 17.7072 9.12459 17.6164 8.29427C16.0439 9.31324 14.9654 9.98756 13.9583 10.4205V10.8333C13.9583 11.1785 13.6785 11.4583 13.3333 11.4583C12.9927 11.4583 12.7157 11.1859 12.7085 10.847C10.9332 11.315 9.06674 11.315 7.29151 10.847C7.28425 11.1859 7.00728 11.4583 6.66666 11.4583C6.32148 11.4583 6.04166 11.1785 6.04166 10.8333V10.4204C5.03457 9.98749 3.95612 9.31316 2.3836 8.29418ZM12.4933 4.37574C12.2343 4.375 11.9645 4.375 11.6838 4.375H8.31619C8.03557 4.375 7.76595 4.375 7.50701 4.37574C7.55009 4.29052 7.58809 4.20272 7.62059 4.11287C7.63053 4.0854 7.64027 4.05616 7.65279 4.01859L7.65506 4.01179L7.67644 3.94765C7.71422 3.83431 7.72491 3.80312 7.73495 3.77813C7.88505 3.40475 8.23679 3.15124 8.63847 3.12691C8.66536 3.12528 8.69831 3.125 8.81779 3.125H11.1826C11.302 3.125 11.335 3.12528 11.3619 3.12691C11.7636 3.15124 12.1153 3.40475 12.2654 3.77813C12.2755 3.80312 12.2861 3.83429 12.3239 3.94765L12.3475 4.01844M12.3798 4.11289C12.4123 4.20273 12.4503 4.29053 12.4933 4.37574Z" fill="#B8798E"/>
</svg>
