<svg width="24" height="24" viewBox="0 0 24 24" fill="none" xmlns="http://www.w3.org/2000/svg">
<path d="M15.7122 16.773L7.22693 8.28771C6.93702 7.99779 6.93702 7.51696 7.22693 7.22705C7.51685 6.93713 7.99768 6.93713 8.28759 7.22705L16.7729 15.7123C17.0628 16.0022 17.0628 16.4831 16.7729 16.773C16.483 17.0629 16.0021 17.0629 15.7122 16.773Z" fill="#B8798E"/>
<path d="M7.22709 16.773C6.93718 16.4831 6.93718 16.0023 7.22709 15.7124L15.7124 7.22711C16.0023 6.93719 16.4831 6.93719 16.773 7.22711C17.063 7.51702 17.063 7.99785 16.773 8.28777L8.28775 16.773C7.99784 17.063 7.51701 17.063 7.22709 16.773Z" fill="#B8798E"/>
</svg>
