<svg width="46" height="46" viewBox="0 0 46 46" fill="none" xmlns="http://www.w3.org/2000/svg">
<circle cx="23" cy="23" r="22" stroke="#B8798E" stroke-width="1.03529"/>
<path d="M28.1691 31.0235H17.8311C16.4025 31.0235 15.2354 29.8564 15.2354 28.4278V18.0898C15.2354 16.6612 16.4025 15.4941 17.8311 15.4941H28.1691C29.5977 15.4941 30.7648 16.6612 30.7648 18.0898V28.4278C30.7648 29.8628 29.6041 31.0235 28.1691 31.0235Z" stroke="#B8798E" stroke-width="1.03529"/>
<path d="M20.1847 26.0809C20.9373 26.8335 21.9386 27.248 23.0036 27.248C24.0687 27.248 25.0636 26.8335 25.8225 26.0809C26.5751 25.3284 26.9896 24.3271 26.9896 23.2621C26.9896 22.197 26.5751 21.1957 25.8225 20.4432C25.07 19.6906 24.0687 19.2761 23.0036 19.2761C21.9386 19.2761 20.9373 19.6906 20.1847 20.4432C19.4322 21.1957 19.0176 22.197 19.0176 23.2621C19.0176 24.3271 19.4322 25.3284 20.1847 26.0809Z" stroke="#B8798E" stroke-width="1.03529"/>
<path d="M27.7662 19.1451C28.1889 19.1451 28.5315 18.8024 28.5315 18.3798C28.5315 17.9571 28.1889 17.6144 27.7662 17.6144C27.3435 17.6144 27.0009 17.9571 27.0009 18.3798C27.0009 18.8024 27.3435 19.1451 27.7662 19.1451Z" stroke="#B8798E" stroke-width="1.03529"/>
</svg>
