<svg width="26" height="26" viewBox="0 0 26 26" fill="none" xmlns="http://www.w3.org/2000/svg">
<path d="M8.52165 0.868408C9.65371 0.75432 10.614 1.45471 11.3136 2.38501C12.0155 3.31828 12.4833 4.51615 12.6291 5.47974C12.7762 6.45274 12.6627 7.60513 12.2424 8.55591C11.8211 9.50841 11.0816 10.2771 9.9738 10.4329L9.96599 10.4338H9.95818C8.81016 10.4757 7.86297 9.91271 7.16423 9.05786C6.46704 8.2049 6.00994 7.05464 5.83025 5.89185C5.65068 4.72984 5.7457 3.53853 6.17302 2.60376C6.60305 1.66308 7.3722 0.981388 8.52165 0.869385V0.868408ZM8.55486 2.08423C8.10789 2.15143 7.72476 2.40266 7.46306 2.80005C6.76918 3.8539 6.79457 5.50405 7.30486 6.88892C7.55867 7.57761 7.9272 8.18717 8.37126 8.61157C8.8126 9.03336 9.32041 9.26563 9.86247 9.23169C10.5852 9.10245 11.0264 8.54907 11.2658 7.82544C11.5063 7.09816 11.531 6.2285 11.4357 5.54907C11.3369 4.84471 10.9931 3.93958 10.4758 3.22876C9.95722 2.51636 9.2923 2.03404 8.55486 2.08423Z" fill="#B8798E" stroke="#B8798E" stroke-width="0.3"/>
<path d="M17.1248 0.871094C17.3612 0.823345 17.6644 0.863586 17.9393 0.94043C18.2163 1.01793 18.4913 1.13895 18.6756 1.27246C20.1662 2.35219 20.5831 4.43765 20.1805 6.3291C19.7774 8.22248 18.5385 9.9926 16.6297 10.4307L16.616 10.4336L16.6023 10.4346C15.4198 10.4863 14.5727 9.92687 14.0496 9.06152C13.5314 8.20401 13.3319 7.04968 13.4119 5.8877C13.492 4.72419 13.8535 3.53549 14.4773 2.60449C15.0994 1.67621 15.9892 0.996691 17.1248 0.871094ZM17.1727 2.08496C16.2713 2.22609 15.5472 3.00817 15.0809 4.0127C14.6155 5.01521 14.4297 6.19354 14.574 7.04883C14.6711 7.62427 14.888 8.18997 15.2254 8.60059C15.5532 8.99955 15.9919 9.24838 16.5564 9.23047C16.6744 9.16101 16.7984 9.11422 16.909 9.07129C17.0369 9.02162 17.1527 8.9741 17.2615 8.90039C18.5709 8.01267 19.1734 6.25706 19.116 4.72852C19.0873 3.96642 18.8944 3.27842 18.5603 2.79688C18.2316 2.32326 17.7687 2.04971 17.1727 2.08496Z" fill="#B8798E" stroke="#B8798E" stroke-width="0.3"/>
<path d="M3.13379 8.12555C4.10208 8.03832 5.02077 8.43294 5.7793 9.06989C6.53798 9.70697 7.14718 10.5944 7.50195 11.5181C7.85595 12.4399 7.96283 13.416 7.69141 14.2242C7.41615 15.0433 6.75877 15.6683 5.63867 15.8843L5.62305 15.8873H5.60742C3.11297 15.8353 1.51107 13.9975 1.01562 12.1422C0.76782 11.2141 0.791849 10.2644 1.13184 9.51617C1.47542 8.76044 2.13837 8.22092 3.13281 8.12555H3.13379ZM4.93652 9.96832C4.38587 9.51986 3.77094 9.27494 3.16992 9.3609L3.1709 9.36188C2.5901 9.45673 2.25141 9.81129 2.10742 10.3033C1.96059 10.8055 2.01703 11.4558 2.25879 12.108C2.74243 13.4124 3.93123 14.6416 5.50879 14.6617C5.83471 14.5972 6.07489 14.4671 6.24609 14.2945C6.42012 14.1189 6.53188 13.8918 6.58594 13.6255C6.69501 13.0878 6.56646 12.4026 6.26172 11.7291C5.95799 11.0579 5.48678 10.4165 4.93652 9.96832Z" fill="#B8798E" stroke="#B8798E" stroke-width="0.3"/>
<path d="M22.4573 8.12689C23.1215 8.02016 23.756 8.28213 24.2356 8.72064C24.7146 9.15874 25.0527 9.78358 25.1243 10.4326C25.2658 11.7171 24.8166 12.9974 24.0393 13.9951C23.2621 14.9923 22.1466 15.7198 20.9397 15.8857L20.9348 15.8867C19.8518 15.9993 19.0984 15.5924 18.6731 14.8935C18.2552 14.2066 18.1676 13.2604 18.3489 12.3066C18.71 10.406 20.1648 8.3648 22.4573 8.12787V8.12689ZM22.4954 9.36322C21.4993 9.49608 20.4554 10.407 19.8606 11.4931C19.2615 12.5871 19.1667 13.7575 19.9104 14.4335C20.0208 14.5338 20.1824 14.6065 20.3645 14.6464C20.5456 14.6861 20.7363 14.6909 20.8958 14.665C22.4769 14.3671 23.533 12.9628 23.8499 11.6484C24.0082 10.9913 23.975 10.3823 23.7542 9.96185C23.645 9.75412 23.4898 9.59229 23.2874 9.48822C23.0841 9.38391 22.823 9.33298 22.4954 9.36322Z" fill="#B8798E" stroke="#B8798E" stroke-width="0.3"/>
<path d="M12.8639 10.4661C14.8867 10.4152 16.7546 11.7994 17.4312 13.7718C17.5655 14.1635 17.6364 14.5286 17.7223 14.8597C17.8094 15.1954 17.9156 15.5164 18.1256 15.8568C18.3464 16.2146 18.6023 16.4343 18.8824 16.6458C19.1608 16.856 19.4766 17.0666 19.7789 17.3909L19.9352 17.5667C21.4997 19.4135 21.4661 22.192 19.7477 23.9466C18.679 25.081 16.7943 25.483 15.3883 24.8509C15.1573 24.7471 14.9647 24.6376 14.7906 24.5335C14.6143 24.4281 14.464 24.3318 14.3043 24.2464C13.9946 24.0808 13.6615 23.9613 13.1305 23.9515L13.1236 23.9505C12.3983 23.9031 11.9048 24.1598 11.3727 24.4573C10.8403 24.7549 10.2675 25.0955 9.42245 25.136C7.19832 25.2428 5.66074 23.8002 5.13046 22.0218C4.60087 20.2455 5.06907 18.1141 6.86288 16.8216L6.87265 16.8138C7.69094 16.3206 8.18675 15.5513 8.39999 14.5765C8.65878 13.3936 9.16334 12.3928 9.91269 11.6732C10.6638 10.9518 11.6528 10.5211 12.8609 10.4661H12.8639ZM14.9303 12.3245C14.3019 11.8701 13.5664 11.6155 12.8844 11.6937L12.8717 11.6956V11.6946C11.9489 11.7183 11.2032 12.0515 10.5445 12.7337L10.5426 12.7366L10.4371 12.6302L10.5416 12.7366C9.96509 13.3044 9.75958 14.1329 9.48203 15.0306C9.20944 15.9122 8.86974 16.8402 7.99277 17.4925C7.32426 17.9897 6.9563 18.2266 6.54843 18.9476C5.2733 21.2018 6.81734 24.0009 9.29062 23.931C9.96648 23.9119 10.3972 23.6242 10.9488 23.3177C11.5014 23.0107 12.144 22.7083 13.2008 22.7308H13.2018C13.8962 22.7417 14.3155 22.8902 14.6861 23.0921C14.8648 23.1895 15.0368 23.3029 15.2115 23.4085C15.3895 23.5161 15.5814 23.6237 15.817 23.723C17.2914 24.3444 18.6814 23.6443 19.4029 22.4388C20.1236 21.2347 20.1601 19.548 18.9205 18.2308C18.6527 17.9477 18.3678 17.7611 18.0357 17.5267L18.0328 17.5247C17.4126 17.0682 17.0831 16.5235 16.8551 15.9349C16.7418 15.6425 16.6534 15.3378 16.567 15.0306C16.4801 14.7215 16.3953 14.4092 16.2887 14.0921C16.0628 13.4205 15.558 12.7785 14.9303 12.3245Z" fill="#B8798E" stroke="#B8798E" stroke-width="0.3"/>
</svg>
