<svg width="24" height="24" viewBox="0 0 24 24" fill="none" xmlns="http://www.w3.org/2000/svg">
<path d="M7.53728 0.0174174C3.18519 0.439977 4.59334 9.44336 8.95259 9.2843C11.0349 8.99177 11.7674 6.3986 11.4808 4.50252C11.1966 2.62283 9.64803 -0.195302 7.53728 0.0174174Z" fill="#B8798E"/>
<path d="M16.155 0.0174369C11.8063 0.479502 11.1073 9.48097 15.596 9.28432C19.2604 8.44352 20.4356 2.45739 17.5873 0.394254C17.256 0.154265 16.5593 -0.0642121 16.155 0.0174369Z" fill="#B8798E"/>
<path d="M4.61032 14.7372C-0.212681 14.6367 -1.61148 7.6351 2.14683 7.27468C5.8171 6.94352 8.89559 13.9108 4.61032 14.7372Z" fill="#B8798E"/>
<path d="M19.9195 14.7372C15.793 15.1666 17.0634 7.72145 21.4816 7.27466C22.6989 7.07905 23.8405 8.22862 23.9751 9.44895C24.2482 11.928 22.2422 14.418 19.9195 14.7372Z" fill="#B8798E"/>
<path d="M12.1335 22.8011C10.5885 22.7 10.0257 23.9085 8.41538 23.9859C4.1276 24.1918 2.48033 18.4432 5.95029 15.943C6.80935 15.4253 7.3258 14.6174 7.54642 13.6088C8.05442 11.2865 9.51927 9.72272 11.8676 9.61588C13.8196 9.56669 15.6317 10.9043 16.289 12.82C16.553 13.59 16.5559 14.2186 16.9979 14.9351C17.4683 15.6975 18.0878 15.8691 18.6692 16.4929C20.3387 18.2793 20.357 21.093 18.639 22.8447C17.6126 23.9343 15.7956 24.3189 14.4501 23.7139C13.5563 23.3121 13.2492 22.8217 12.1335 22.8011Z" fill="#B8798E"/>
</svg>
