<svg width="46" height="46" viewBox="0 0 46 46" fill="none" xmlns="http://www.w3.org/2000/svg">
<circle cx="23" cy="23" r="22" stroke="#B8798E" stroke-width="1.03529"/>
<path d="M18.0325 20.1579H14.2467V32.2305H18.0325V20.1579Z" stroke="#B8798E" stroke-width="1.03529"/>
<path d="M28.2734 19.8961C28.1338 19.8786 27.9855 19.8699 27.8372 19.8612C25.7176 19.774 24.5225 21.0301 24.1038 21.5709C23.9904 21.7192 23.9381 21.8064 23.9381 21.8064V20.1927H20.318V32.2653H23.9381H24.1038C24.1038 31.0354 24.1038 29.8141 24.1038 28.5842C24.1038 27.9212 24.1038 27.2583 24.1038 26.5953C24.1038 25.7754 24.0427 24.9031 24.4527 24.1529C24.8016 23.5249 25.4297 23.2108 26.1363 23.2108C28.2298 23.2108 28.2734 25.1037 28.2734 25.2782C28.2734 25.2869 28.2734 25.2956 28.2734 25.2956V32.3176H32.0592V24.4408C32.0592 21.7454 30.6897 20.1578 28.2734 19.8961Z" stroke="#B8798E" stroke-width="1.03529"/>
<path d="M16.1391 18.5963C17.3531 18.5963 18.3373 17.6122 18.3373 16.3981C18.3373 15.1841 17.3531 14.2 16.1391 14.2C14.9251 14.2 13.9409 15.1841 13.9409 16.3981C13.9409 17.6122 14.9251 18.5963 16.1391 18.5963Z" stroke="#B8798E" stroke-width="1.03529"/>
</svg>
