<svg width="200" height="200" viewBox="0 0 200 200" fill="none" xmlns="http://www.w3.org/2000/svg">
<path d="M42.3852 84.631C41.4732 83.1728 40.6094 77.2111 40.1826 75.2219C39.927 73.2365 39.8568 71.1035 39.8233 69.1213C39.5164 54.7578 45.7262 41.5129 55.5852 31.4809C77.0541 9.63548 112.707 10.7641 135.186 30.3596C136.047 31.1105 137.024 32.05 137.916 32.7244L137.993 32.782C137.02 33.741 135.798 34.8978 134.986 35.9816C130.123 42.4703 128.083 50.9396 127.092 58.8519C126.918 60.2435 126.821 61.5693 126.727 62.9605C126.684 63.599 126.688 64.8412 126.568 65.3996L123.671 64.3748L123.489 64.2558C124.069 61.6144 124.441 59.5508 124.164 56.8035C124.091 56.0767 123.587 53.9348 123.686 53.4363C124.079 51.4703 124.833 49.6002 125.275 47.5635C126.171 43.4285 126.47 39.5312 126.594 35.318C126.571 34.3916 126.928 32.4523 126.579 31.6209C126.074 30.4184 123.144 31.3445 122.363 31.633C118.942 32.8961 115.915 34.8334 112.903 36.8453C111.597 37.7176 110.417 38.6598 109.046 39.4406C104.799 38.268 100.696 38.1648 96.3492 38.8141C95.7164 38.443 94.8611 37.7906 94.2328 37.358C92.3057 36.1105 91.1477 35.0619 89.2232 33.6912C87.2649 32.2961 84.0217 28.9861 81.4539 29.2422C80.6594 29.3213 80.4766 32.1383 80.374 32.9424C79.8129 37.3461 79.8795 41.7992 80.6945 46.1719C80.9238 47.406 81.1274 48.6746 81.5912 49.8476C79.5957 53.9308 79.8719 58.5685 80.6975 62.8701C77.0873 63.8627 73.4338 65.0814 70.1623 66.9293C68.8641 67.6625 65.2924 69.6088 64.8119 70.8869L64.8611 70.9492C65.4365 70.8719 65.9979 70.4101 66.4498 70.0707C70.0773 67.3459 74.3387 65.4131 78.6668 64.0976C79.2734 63.9133 80.2418 63.5963 80.8592 63.534C81.4842 64.7629 81.8545 66.3242 82.76 67.5701C82.8621 67.7105 83.0365 68.0217 83.0834 68.1855L83.043 68.2451C78.9453 70.5631 75.2352 73.182 72.1014 76.7398C71.6807 77.2174 70.6566 78.2492 70.6564 78.8701L70.8029 79.0127C71.1168 78.9914 71.4805 78.4943 71.7195 78.2066C74.9447 74.3224 78.9203 71.1601 83.4051 68.8057L83.4779 68.8055C84.3139 69.8762 85.1051 70.8023 85.9523 71.8447C85.9379 74.6914 86.1912 79.3924 85.5869 81.9517C84.408 86.9433 81.9725 90.4248 82.4195 95.9369C82.7785 100.366 83.7109 104.67 84.5828 109.034C85.3619 113.751 85.6881 119.213 85.7492 123.975C85.7615 124.927 85.7922 128.666 85.6582 129.433C85.6549 128.046 85.077 128.437 83.9914 127.779L83.8744 127.707C82.557 126.01 75.2076 121.304 73.1975 119.915C71.71 118.888 66.9107 115.52 65.3611 114.826C65.9201 110.326 66.1084 105.631 66.6881 101.112C66.8473 99.8713 66.3535 98.4775 65.4223 97.632C61.5441 94.1117 53.9318 92.9762 48.8533 92.868C49.1234 91.6473 49.801 90.5697 50.3625 89.4555C51.8131 86.5398 53.6654 83.2605 53.1693 79.8959C52.8643 77.8254 50.4072 77.0596 48.8783 78.4535C44.882 82.0969 47.0586 87.7535 47.9949 92.2262C48.0611 92.5426 48.0402 92.6324 47.867 92.8672C46.8274 92.8566 45.784 92.8777 44.7441 92.8922C44.4209 91.4908 44.1197 90.0764 43.9084 88.6533C42.8508 81.5346 43.3563 75.8244 45.2807 68.9353C45.8713 66.8207 46.5152 64.6064 47.8531 62.8308C48.409 62.0935 49.2082 61.2877 50.1693 61.1814C50.5338 61.141 50.9406 61.2135 51.2281 61.4541C51.6912 61.8418 51.7908 62.4904 51.7846 63.0605C51.7391 67.2293 45.5649 72.0238 45.7442 73.867L45.8537 73.9463C45.9807 73.8916 46.0822 73.8303 46.1869 73.7392C46.8723 73.1424 47.4656 72.3676 48.0565 71.6752C49.9484 69.458 52.6514 66.3771 52.7818 63.3307C52.8201 62.4344 52.6244 61.4623 51.9879 60.7935C51.5674 60.3514 51.0313 60.1131 50.4205 60.1078C49.4151 60.0994 48.5885 60.5724 47.8875 61.2588C44.5219 64.5541 42.4494 74.8969 42.1982 79.4904C42.1057 81.1836 42.4063 82.9191 42.3852 84.631Z" fill="#F2E8ED"/>
<path d="M137.993 32.782C140.093 30.9755 144.132 27.9742 146.719 27.1978C154.542 24.8504 163.238 32.7373 167.869 38.1709C175.214 46.7882 179.762 58.6718 178.845 70.0463C178.036 79.6367 174.008 88.9533 166.547 95.2179C164.918 96.5857 163.822 97.3183 161.715 97.6281C161.873 99.491 162.302 103.865 162.088 105.602C163.682 103.805 164.694 101.771 165.974 99.7898C167.107 98.0836 168.622 95.4394 170.863 95.165C172.267 94.9929 172.895 96.8492 172.784 97.9574C172.224 103.556 166.162 106.598 161.858 108.939C161.81 109.228 161.76 109.589 161.687 109.865C161.58 110.592 161.343 113.018 160.972 113.426C160.644 113.532 160.8 113.536 160.487 113.428C160.091 112.815 160.528 111.118 160.67 110.326C160.756 109.615 160.809 108.965 160.86 108.25C159.044 106.658 157.493 103.454 155.959 101.763L155.941 101.683L156.871 101.134C158.224 103.389 159.657 105.064 160.98 107.153C161.15 104.482 161.189 100.423 160.717 97.756C158.795 97.8521 156.744 97.9312 154.816 97.9504L154.717 97.8441C154.267 97.164 152.909 94.5925 151.999 94.9058C151.758 95.6689 152.932 97.1732 153.372 97.8271L149.131 97.8015C145.059 93.5289 141.743 91.2679 136.458 88.5455C133.24 86.8873 128.65 84.7558 126.052 82.2929C126.154 82.0363 126.053 79.5384 126.041 79.0486C125.994 77.0504 126.132 75.2877 126.344 73.3047C129.651 75.4863 132.912 79.4357 135.165 82.6586C135.307 82.8613 135.361 82.8257 135.556 82.823C135.98 82.2334 134.866 81.147 134.499 80.6465C132.139 77.4265 129.367 74.9961 126.288 72.5C126.473 70.6507 126.584 67.9687 126.656 66.0918C129.981 67.4021 133.105 69.2839 135.949 71.4429C136.522 71.8775 137.324 72.7873 137.984 72.9539L138.141 72.8414L138.161 72.6359C136.252 70.1318 129.58 66.5994 126.568 65.3996C126.688 64.8412 126.684 63.599 126.727 62.9605C126.821 61.5693 126.918 60.2435 127.092 58.8519C128.083 50.9396 130.123 42.4703 134.986 35.9816C135.798 34.8978 137.02 33.741 137.993 32.782ZM160.708 97.6882C161.127 97.6744 161.291 97.6607 161.702 97.5793C161.434 91.9414 159.563 83.6465 157.124 78.5347C159.253 74.6976 159.782 65.5359 155.247 63.0504C151.141 61.1824 150.374 65.2904 151.22 68.2646C152.32 72.1291 154.216 75.089 155.916 78.6185C158.112 83.1802 159.36 88.1898 160.133 93.167C160.358 94.6156 160.415 96.3123 160.708 97.6882ZM144.647 60.3744C143.43 61.0025 142.391 61.9043 141.974 63.2611C141.728 64.0625 141.775 64.9058 142.189 65.6439C142.702 66.5584 143.712 67.1714 144.709 67.4261C144.968 67.4923 145.234 67.5193 145.5 67.5429C146.258 67.5093 146.938 67.3257 147.464 66.7474C148.041 66.1136 148.209 65.2373 148.154 64.4048C148.07 63.1457 147.529 61.6867 146.538 60.8773C146.032 60.4638 145.456 60.2601 144.803 60.3502C144.751 60.3574 144.699 60.3664 144.647 60.3744ZM147.084 77.4625C146.408 77.7054 145.775 77.9943 145.438 78.6718C145.058 79.4363 145.192 80.43 145.469 81.2037C146.663 84.5398 150.691 86.9777 153.655 88.6392C154.115 88.7896 154.511 88.8597 154.972 88.6783C155.205 88.4683 155.264 88.2365 155.282 87.9334C155.321 87.2916 155.139 86.5744 154.999 85.9523C154.462 83.5613 153.523 81.38 151.816 79.5841C150.854 78.5732 149.402 77.4937 147.952 77.4343C147.665 77.4226 147.371 77.4461 147.084 77.4625ZM163.759 78.0496C162.827 78.4519 162.279 78.9466 161.916 79.9174C161.244 81.7132 161.698 84.0617 162.506 85.7394C162.749 86.2453 163.041 86.6769 163.573 86.8945C163.945 86.9041 164.196 86.7103 164.503 86.5298C166.009 85.0816 167.086 83.3666 167.114 81.2136C167.125 80.3457 166.938 79.406 166.285 78.7853C165.601 78.1355 164.661 77.9996 163.759 78.0496ZM170.617 96.0043C168.087 97.1062 165.78 102.258 163.983 104.555C163.56 105.096 162.067 106.206 161.914 106.732C161.831 107.017 161.901 107.509 161.912 107.81L162.835 107.438C165.986 105.836 170.582 102.821 171.679 99.2992C171.961 98.3947 172.045 97.2898 171.628 96.4062C171.529 96.1947 171.333 96.04 171.101 96.0015C170.948 95.9761 170.771 95.9955 170.617 96.0043Z" fill="#D199B0"/>
<path d="M117.6 37.1491C119.774 35.0567 122.776 33.4698 125.508 32.2866C121.302 33.0079 116.544 36.3233 113.038 38.736C112.153 39.3448 110.939 40.0667 110.14 40.685C109.159 41.2475 107.77 40.4159 106.594 40.2075C104.001 39.7481 101.461 39.5823 98.8311 39.786C97.8362 39.863 96.2425 40.2288 95.3196 40.1046C92.1561 37.8477 88.9792 35.7517 85.961 33.2667C84.7282 32.2517 83.1077 30.8257 81.5936 30.3604C82.5977 31.1673 84.2017 32.3403 85.0577 33.2075C86.7632 34.9356 90.9194 39.9376 91.1864 42.2159C90.2593 43.1618 88.5366 44.0046 87.3794 44.8179C81.9868 48.6075 80.1267 56.3825 82.137 62.5503C81.6513 62.7327 81.2833 62.789 80.7782 62.8886L80.6976 62.87C79.872 58.5684 79.5958 53.9308 81.5913 49.8476C81.1274 48.6745 80.9239 47.4059 80.6946 46.1718C79.8796 41.7991 79.813 37.346 80.3741 32.9423C80.4767 32.1382 80.6595 29.3212 81.454 29.2421C84.0218 28.986 87.2649 32.296 89.2233 33.6911C91.1477 35.0618 92.3058 36.1104 94.2329 37.3579C94.8612 37.7905 95.7165 38.4429 96.3493 38.814C100.696 38.1647 104.799 38.2679 109.047 39.4405C110.417 38.6597 111.598 37.7175 112.903 36.8452C115.915 34.8333 118.942 32.896 122.363 31.6329C123.144 31.3444 126.074 30.4183 126.579 31.6208C126.928 32.4522 126.571 34.3915 126.594 35.3179C126.47 39.5311 126.172 43.4284 125.275 47.5634C124.833 49.6001 124.079 51.4702 123.686 53.4362C123.587 53.9347 124.091 56.0767 124.165 56.8034C124.441 59.5507 124.069 61.6143 123.489 64.2558L122.234 63.9134C123.245 59.6868 122.951 56.7882 121.994 52.6919L122.416 51.8712C124.06 48.8954 125.001 41.7772 125.109 38.2874C125.291 37.1341 125.176 35.1964 125.23 33.9671C121.604 35.0784 116.871 39.0493 114.975 42.4077C116.522 43.5386 118.378 45.6821 119.479 47.2069L120.578 49.2013L120.957 50.0101C120.171 50.3106 119.766 49.4222 119.357 48.8175C118.35 47.33 117.465 46.3145 116.099 45.1063C115.479 44.5581 113.694 43.4563 113.635 42.514C113.9 40.887 116.52 38.2507 117.6 37.1491ZM81.6735 31.9942C81.1419 37.6636 81.2542 43.1054 82.5298 48.661C83.4185 47.1991 84.4241 45.986 85.6503 44.7954C86.9026 43.6862 88.229 42.8352 89.7063 42.055C88.6013 38.9366 84.4997 33.7216 81.6735 31.9942Z" fill="#D199B0"/>
<path d="M81.5935 30.3606C83.1076 30.8258 84.7281 32.2518 85.9609 33.2668C88.9791 35.7518 92.156 37.8479 95.3195 40.1047C93.1515 41.2374 89.0726 35.6459 88.1459 35.575C88.3558 35.9651 88.8326 36.2133 89.0695 36.5713C89.8451 37.7432 91.8687 39.7321 92.2593 40.9516C92.2093 41.5799 91.7041 41.9274 91.1863 42.2161C90.9193 39.9377 86.763 34.9358 85.0576 33.2077C84.2015 32.3405 82.5976 31.1674 81.5935 30.3606Z" fill="#F2E8ED"/>
<path d="M82.5296 48.6612C81.254 43.1055 81.1417 37.6637 81.6734 31.9944C84.4995 33.7217 88.6011 38.9368 89.7062 42.0551C88.2288 42.8354 86.9025 43.6864 85.6501 44.7956C84.4239 45.9862 83.4183 47.1993 82.5296 48.6612Z" fill="#F2E8ED"/>
<path d="M117.6 37.1491C115.971 37.1437 111.981 41.7632 110.14 40.6851C110.939 40.0667 112.153 39.3448 113.038 38.736C116.544 36.3233 121.302 33.0079 125.507 32.2866C122.776 33.4698 119.774 35.0567 117.6 37.1491Z" fill="#F2E8ED"/>
<path d="M125.109 38.2876C125.093 37.1161 125.138 35.7608 125.071 34.6171C124.296 37.112 124.054 40.4437 123.121 43.1979C121.95 45.2905 121.455 45.8282 119.479 47.2071C118.378 45.6823 116.522 43.5388 114.975 42.4079C116.871 39.0495 121.604 35.0786 125.23 33.9673C125.176 35.1966 125.29 37.1343 125.109 38.2876Z" fill="#F2E8ED"/>
<path d="M125.071 34.6169C125.138 35.7607 125.093 37.116 125.109 38.2875C125.001 41.7773 124.06 48.8955 122.416 51.8712C121.93 51.3687 121.422 50.5873 120.956 50.0101L120.578 49.2013C122.483 47.357 123.193 45.9154 123.121 43.1978C124.054 40.4435 124.296 37.1119 125.071 34.6169Z" fill="#F2E8ED"/>
<path d="M110.14 40.6851C111.981 41.7632 115.971 37.1437 117.6 37.1492C116.52 38.2507 113.899 40.8871 113.635 42.514C113.694 43.4564 115.479 44.5582 116.099 45.1064C117.465 46.3146 118.349 47.33 119.356 48.8175C119.766 49.4222 120.171 50.3107 120.956 50.0101C121.422 50.5873 121.93 51.3687 122.416 51.8712L121.993 52.6919C122.951 56.7882 123.245 59.6869 122.234 63.9134C121.561 63.6679 120.214 63.4084 119.468 63.2605C115.462 62.4681 112.267 62.1689 108.238 63.0916C107.562 62.5574 107.389 62.6986 106.482 62.7966C105.043 61.4298 104 60.8308 103.824 58.8322C103.688 57.2828 105.807 53.114 104.482 52.1203C102.617 50.7208 102.935 49.9968 102.766 47.5742C102.678 46.2994 102.843 44.5363 102.725 43.0697C102.47 43.9748 102.314 44.5273 101.908 45.3744C101.807 44.5718 101.734 44.0966 101.542 43.3152C100.809 45.6443 100.531 47.9691 99.7575 50.2835C99.3804 51.4125 98.1171 51.7763 98.0673 52.1519C97.3907 57.2363 102.212 59.3466 95.7817 62.7687L95.6702 62.8269C95.1083 62.7578 94.5138 62.5968 93.9999 62.6851L93.7456 62.8968L93.7138 63.0144C93.1946 62.3263 90.2034 62.0781 89.387 62.0175C86.9593 61.8371 84.6245 62.1056 82.247 62.5416L82.1368 62.5503C80.1265 56.3826 81.9866 48.6076 87.3792 44.8179C88.5364 44.0046 90.2591 43.1619 91.1862 42.216C91.704 41.9273 92.2093 41.5798 92.2593 40.9515C91.8687 39.732 89.845 37.7431 89.0694 36.5712C88.8325 36.2132 88.3558 35.965 88.1458 35.575C89.0726 35.6458 93.1515 41.2373 95.3194 40.1046C96.2423 40.2289 97.836 39.863 98.831 39.7861C101.461 39.5824 104.001 39.7482 106.594 40.2076C107.77 40.416 109.159 41.2476 110.14 40.6851ZM91.1376 51.672C88.9337 52.2054 87.8409 53.3693 86.1351 54.7521C85.5925 54.232 84.3382 52.7888 83.5765 52.8261C83.42 52.8337 83.4114 52.9136 83.3247 53.0267C83.2839 53.4964 83.3333 53.7072 83.6464 54.0724C84.1425 54.6511 84.7456 55.1673 85.2821 55.7105C86.5925 57.0369 87.7083 58.3494 89.3062 59.3636C91.011 60.3957 93.1046 61.4246 95.1483 60.8912C96.1091 60.6404 96.7606 60.1404 97.2644 59.2972C97.363 57.1373 96.5651 54.841 95.0878 53.2451C94.3153 52.4105 93.2853 51.7011 92.1163 51.6439C91.7917 51.6281 91.4616 51.6527 91.1376 51.672ZM111.811 52.4613C109.898 52.8705 108.514 54.1751 107.48 55.7855C106.764 56.9019 106.102 58.4369 106.434 59.7777C106.595 60.4291 107 60.947 107.584 61.2736C108.925 62.0236 111.058 62.0359 112.507 61.6037C112.546 61.5921 112.584 61.5796 112.623 61.5677C114.315 60.923 117.465 59.0718 118.205 57.4017C118.366 57.0371 118.362 56.6843 118.193 56.323C117.541 54.9226 115.047 53.1209 113.568 52.6392C112.986 52.4496 112.419 52.4193 111.811 52.4613Z" fill="#F2E8ED"/>
<path d="M119.479 47.2069C121.455 45.828 121.95 45.2903 123.121 43.1978C123.193 45.9153 122.483 47.3569 120.578 49.2013L119.479 47.2069Z" fill="#F2E8ED"/>
<path d="M102.725 43.0698C102.843 44.5364 102.678 46.2995 102.766 47.5743C102.935 49.997 102.617 50.721 104.482 52.1204C105.807 53.1142 103.688 57.2829 103.824 58.8323C104 60.831 105.043 61.43 106.482 62.7968C106.585 63.1646 106.594 63.2245 106.784 63.5478L107.02 63.6897C107.482 64.1978 107.812 64.5872 108.233 65.1298L107.231 65.5886L108.586 66.0317C108.659 66.2737 108.938 67.1325 108.958 67.3306C108.481 67.1353 107.91 66.8921 107.407 66.8142L107.32 66.9843L107.181 66.8825L107.18 66.8058L107.167 66.911C107.713 67.3302 108.223 67.4306 108.879 67.6397C110.478 68.4101 111.706 68.9892 112.796 70.4368C111.248 69.7718 109.697 68.0911 107.987 68.055C107.863 68.0522 107.768 68.2608 107.698 68.3624C107.144 69.8597 106.108 71.9864 104.08 70.6966C102.589 69.7483 102.143 67.8241 101.803 66.1878C102.742 65.4608 104.643 64.2347 104.848 63.0095C105.023 61.964 103.589 61.4517 102.751 61.4372C101.291 61.4122 99.2575 60.8983 98.0315 61.9276C97.2745 63.4604 99.1599 64.744 100.058 65.4392C101.166 66.2974 99.0638 69.5341 98.214 70.1431C97.7329 70.4878 97.0622 70.7155 96.4638 70.5788C94.7616 70.3772 95.069 68.8237 94.3452 67.8538C94.0255 67.8392 94.1856 67.8231 93.8417 68.0907C93.4599 68.2628 92.6585 68.7507 92.311 68.5427C92.4071 67.6085 94.8159 66.6845 95.2347 65.8759L95.1147 65.8165C93.2327 66.245 91.444 67.8685 89.7067 68.764L89.562 68.8376C91.4362 66.8673 93.089 66.1112 95.4077 64.8778C95.589 64.7814 95.5847 64.4718 95.5983 64.2913C95.3954 63.6837 94.2915 63.3437 93.7456 62.897L93.9999 62.6853C94.5138 62.597 95.1083 62.7579 95.6702 62.8271L95.7817 62.7688C102.212 59.3468 97.3907 57.2364 98.0673 52.1521C98.1171 51.7765 99.3804 51.4126 99.7575 50.2837C100.531 47.9692 100.809 45.6444 101.542 43.3153C101.733 44.0968 101.807 44.572 101.908 45.3745C102.314 44.5274 102.47 43.9749 102.725 43.0698Z" fill="#F2E8ED"/>
<path d="M86.1352 54.7522C87.841 53.3694 88.9338 52.2055 91.1377 51.6721C91.4617 51.6528 91.7918 51.6282 92.1164 51.644C93.2854 51.7012 94.3154 52.4106 95.0879 53.2451C96.5652 54.841 97.3631 57.1373 97.2645 59.2973C96.7607 60.1405 96.1092 60.6405 95.1484 60.8912C93.1047 61.4246 91.0111 60.3957 89.3063 59.3637C87.7084 58.3494 86.5926 57.0369 85.2822 55.7106C84.7457 55.1674 84.1426 54.6512 83.6465 54.0725C83.3334 53.7073 83.284 53.4965 83.3248 53.0268C83.4115 52.9137 83.4201 52.8338 83.5766 52.8262C84.3383 52.7889 85.5926 54.2321 86.1352 54.7522ZM91.5945 52.8082C89.9471 53.1694 88.0344 54.3131 86.9125 55.5391C88.0951 56.895 89.2518 58.1414 90.8797 58.9387C91.434 59.2131 92.4002 59.7891 92.9488 59.7543C98.0139 59.9139 96.0666 55.7621 93.891 53.5338C93.3373 53.1604 92.2781 52.6965 91.5945 52.8082Z" fill="#D199B0"/>
<path d="M112.623 61.5679C112.584 61.5798 112.546 61.5923 112.507 61.6038C111.058 62.036 108.926 62.0237 107.584 61.2737C107 60.9472 106.595 60.4292 106.434 59.7778C106.102 58.437 106.764 56.902 107.481 55.7856C108.514 54.1753 109.898 52.8706 111.811 52.4614C112.419 52.4194 112.986 52.4497 113.568 52.6393C115.048 53.121 117.541 54.9227 118.193 56.3231C118.362 56.6845 118.366 57.0372 118.205 57.4018C117.466 59.072 114.315 60.9231 112.623 61.5679ZM113.092 53.7222C112.138 52.8952 111.585 53.7196 110.747 54.0198C108.094 55.6866 105.1 60.4097 110.736 60.4847C111.41 60.5911 112.24 60.4872 112.865 60.1954C114.426 59.5911 115.894 58.1649 117.01 56.9595C115.925 55.571 114.646 54.5556 113.092 53.7222Z" fill="#D199B0"/>
<path d="M91.5946 52.8082C92.2782 52.6965 93.3374 53.1603 93.8911 53.5338C94.7757 56.1312 94.797 57.5869 92.9489 59.7543C92.4003 59.789 91.4341 59.2131 90.8798 58.9387C90.412 56.8412 90.7989 54.7703 91.5946 52.8082Z" fill="#D199B0"/>
<path d="M86.9126 55.539C88.0345 54.313 89.9472 53.1692 91.5946 52.8081C90.7989 54.7702 90.412 56.8411 90.8798 58.9386C89.2519 58.1413 88.0952 56.8948 86.9126 55.539Z" fill="#F2E8ED"/>
<path d="M113.092 53.7222C113.102 54.2194 113.308 54.8345 113.455 55.3167C113.966 56.9991 113.99 58.7331 112.865 60.1954C112.24 60.4872 111.41 60.5911 110.736 60.4847C109.246 58.5931 110.165 56.0175 110.747 54.0198C111.585 53.7196 112.138 52.8952 113.092 53.7222Z" fill="#D199B0"/>
<path d="M93.8909 53.5337C96.0665 55.762 98.0138 59.9138 92.9487 59.7542C94.7968 57.5868 94.7755 56.1312 93.8909 53.5337Z" fill="#F2E8ED"/>
<path d="M112.865 60.1954C113.99 58.7331 113.966 56.9991 113.455 55.3167C113.308 54.8345 113.102 54.2194 113.092 53.7222C114.646 54.5556 115.925 55.571 117.01 56.9595C115.894 58.1649 114.426 59.5911 112.865 60.1954Z" fill="#F2E8ED"/>
<path d="M110.736 60.4846C105.099 60.4096 108.094 55.6866 110.747 54.0198C110.165 56.0174 109.246 58.593 110.736 60.4846Z" fill="#F2E8ED"/>
<path d="M42.3852 84.631C42.4063 82.9191 42.1057 81.1836 42.1983 79.4904C42.4495 74.8968 44.5219 64.5541 47.8876 61.2587C48.5885 60.5724 49.4151 60.0994 50.4206 60.1078C51.0313 60.113 51.5674 60.3513 51.988 60.7935C52.6245 61.4623 52.8202 62.4343 52.7819 63.3306C52.6514 66.3771 49.9485 69.458 48.0565 71.6752C47.4657 72.3675 46.8723 73.1423 46.187 73.7392C46.0823 73.8302 45.9807 73.8916 45.8538 73.9463L45.7442 73.867C45.5649 72.0238 51.7391 67.2293 51.7846 63.0605C51.7909 62.4904 51.6913 61.8418 51.2282 61.4541C50.9407 61.2134 50.5338 61.141 50.1694 61.1814C49.2083 61.2877 48.409 62.0935 47.8532 62.8308C46.5153 64.6064 45.8713 66.8207 45.2807 68.9353C43.3563 75.8244 42.8508 81.5345 43.9085 88.6533C44.1198 90.0763 44.421 91.4908 44.7442 92.8921L43.9044 92.9652C43.4641 90.2818 42.7284 87.3927 42.3852 84.631Z" fill="#D199B0"/>
<path d="M145.5 67.5429C145.234 67.5193 144.968 67.4923 144.709 67.4261C143.711 67.1714 142.702 66.5583 142.189 65.6439C141.775 64.9058 141.727 64.0624 141.974 63.261C142.391 61.9042 143.43 61.0025 144.647 60.3743C144.699 60.3663 144.751 60.3573 144.803 60.3501C145.456 60.2601 146.032 60.4638 146.538 60.8773C147.529 61.6866 148.07 63.1456 148.153 64.4048C148.209 65.2372 148.041 66.1136 147.464 66.7474C146.937 67.3257 146.258 67.5093 145.5 67.5429ZM145.074 61.4212C144.147 61.8874 143.27 62.5993 142.932 63.6208C142.763 64.1323 142.79 64.6554 143.053 65.13C143.46 65.8644 144.185 66.2329 144.934 66.531C145.606 66.5417 146.081 66.5003 146.573 65.9956C146.988 65.5691 147.171 64.9698 147.151 64.3829C147.119 63.395 146.615 62.3335 145.883 61.6736C145.632 61.4478 145.395 61.4308 145.074 61.4212Z" fill="#F2E8ED"/>
<path d="M93.8418 68.0906C94.1857 67.823 94.0256 67.839 94.3453 67.8537C95.0691 68.8236 94.7617 70.3771 96.4639 70.5787C97.0623 70.7154 97.733 70.4876 98.2141 70.1429C99.0639 69.5339 101.166 66.2972 100.058 65.439C99.16 64.7439 97.2746 63.4603 98.0316 61.9275C99.2576 60.8982 101.291 61.4121 102.752 61.4371C103.589 61.4515 105.023 61.9638 104.848 63.0093C104.643 64.2345 102.742 65.4607 101.803 66.1876C102.143 67.824 102.589 69.7482 104.08 70.6964C106.109 71.9863 107.144 69.8595 107.698 68.3623C107.967 68.5435 107.99 68.5386 108.184 68.8119C108.411 69.9578 107.25 71.4144 106.234 71.7765C103.413 72.7818 101.89 70.006 101.011 67.9599C100.198 69.5179 99.1039 71.3957 97.1689 71.5384C94.9703 71.7003 93.9063 70.047 93.8418 68.0906ZM99.5486 62.4091C99.4473 62.6867 99.3625 62.9183 99.4768 63.2138C99.7043 63.8033 100.668 64.1933 101.13 64.6158L102.474 63.7488C102.771 63.5324 103.115 63.3369 103.262 62.9873C103.233 62.8408 103.255 62.7693 103.126 62.674C102.433 62.1638 100.418 62.3984 99.5486 62.4091Z" fill="#D199B0"/>
<path d="M144.934 66.5312C144.185 66.2331 143.46 65.8646 143.053 65.1302C142.79 64.6556 142.764 64.1325 142.933 63.621C143.27 62.5995 144.147 61.8876 145.074 61.4214C145.395 61.431 145.632 61.448 145.883 61.6737C146.615 62.3337 147.12 63.3952 147.152 64.3831C147.171 64.97 146.988 65.5692 146.573 65.9958C146.082 66.5005 145.606 66.5419 144.934 66.5312Z" fill="#D199B0"/>
<path d="M82.2471 62.5417C84.6246 62.1057 86.9594 61.8372 89.3871 62.0176C90.2035 62.0782 93.1947 62.3264 93.7139 63.0145C92.9332 63.0733 91.3822 62.6971 90.5186 62.6204C87.6803 62.3682 85.1498 62.4756 82.391 63.1374C82.2156 62.9352 82.2217 62.9528 82.1484 62.6965L82.2471 62.5417Z" fill="#68504D"/>
<path d="M101.13 64.6159C100.668 64.1935 99.7044 63.8034 99.4768 63.214C99.3626 62.9185 99.4473 62.6868 99.5487 62.4093C100.418 62.3985 102.433 62.164 103.126 62.6741C103.255 62.7694 103.233 62.8409 103.262 62.9874C103.115 63.337 102.771 63.5325 102.474 63.7489L101.13 64.6159Z" fill="#D199B0"/>
<path d="M80.7781 62.8886C81.2832 62.789 81.6511 62.7327 82.1369 62.5503L82.247 62.5415L82.1484 62.6964C82.2216 62.9526 82.2156 62.9351 82.391 63.1372L82.3134 63.1733C81.7941 63.2614 81.3746 63.3239 80.8662 63.478L80.7781 62.8886Z" fill="#BD4335"/>
<path d="M93.7139 63.0145L93.7457 62.8969C94.2916 63.3436 95.3955 63.6836 95.5984 64.2912C95.5848 64.4717 95.5891 64.7813 95.4078 64.8778C93.0891 66.1112 91.4363 66.8672 89.5621 68.8375L89.7068 68.7639C91.4441 67.8684 93.2328 66.245 95.1148 65.8164L95.2348 65.8758C94.816 66.6844 92.4072 67.6084 92.3111 68.5426C92.6586 68.7506 93.46 68.2627 93.8418 68.0907C93.9062 70.0471 94.9703 71.7004 97.1689 71.5385C99.1039 71.3957 100.198 69.518 101.011 67.96C101.89 70.0061 103.413 72.7819 106.234 71.7766C107.25 71.4145 108.411 69.9578 108.184 68.8119C107.99 68.5387 107.967 68.5436 107.698 68.3623C107.768 68.2608 107.863 68.0522 107.987 68.0549C109.697 68.0911 111.248 69.7717 112.796 70.4368C111.706 68.9891 110.479 68.41 108.879 67.6397L108.958 67.3305C108.938 67.1325 108.66 66.2737 108.586 66.0317L107.231 65.5885L108.233 65.1297C107.812 64.5871 107.482 64.1977 107.02 63.6897C108.015 63.6078 109.103 63.2385 110.03 63.1971C113.962 63.0215 118.268 63.4022 122.07 64.4608C121.722 65.8088 120.874 67.4377 120.261 68.7219C118.473 67.9651 114.085 65.7522 111.912 65.4397C111.735 65.4141 111.587 65.5967 111.482 65.7252L111.642 65.884L111.54 65.9239C111.425 65.9678 111.333 65.9989 111.218 66.036C111.09 66.375 111.101 66.2084 111.167 66.5524C111.478 66.9102 111.823 67.1334 112.204 67.4159L112.34 67.4108L112.547 67.0307C112.801 67.1418 113.339 67.9059 113.56 68.186C113.122 66.4389 112.928 66.9733 111.819 65.9625C114.6 66.6909 117.206 68.1381 119.8 69.1612C118.535 70.5899 117.805 71.4078 116.262 72.5137C110.941 76.3282 104.95 77.6055 98.5363 76.4678C93.8441 75.6356 90.058 73.9518 86.7113 70.4737C86.0426 69.7787 85.2074 68.9551 84.6549 68.1719L85.0627 67.9164C86.7371 67.2311 88.4566 66.4918 90.2346 66.1291C90.6469 66.045 91.2568 66.0297 91.6023 65.8438C91.265 64.6889 85.8717 66.9229 85.0881 67.2639C84.7857 67.3901 84.5779 67.451 84.3111 67.6375C83.358 66.3453 82.7258 64.7133 82.3135 63.1735L82.391 63.1373C85.1498 62.4756 87.6803 62.3682 90.5186 62.6203C91.3822 62.6971 92.9332 63.0733 93.7139 63.0145ZM109.936 69.595C110.187 70.2883 110.596 70.9401 111.285 71.269C111.402 71.3246 111.519 71.3496 111.645 71.37C111.639 70.8869 111.607 70.6028 111.256 70.2526C110.916 69.9129 110.387 69.7301 109.936 69.595Z" fill="#F2E8ED"/>
<path d="M108.238 63.0917C112.267 62.169 115.462 62.4682 119.468 63.2606C120.214 63.4085 121.561 63.668 122.234 63.9135L123.489 64.2559L123.671 64.3749L123.328 64.8532C122.837 64.6546 122.577 64.5891 122.07 64.4608C118.268 63.4022 113.962 63.0215 110.03 63.1971C109.103 63.2385 108.015 63.6079 107.02 63.6897L106.784 63.5477C107.135 63.396 107.847 63.2075 108.238 63.0917Z" fill="url(#paint0_linear_352_3292)"/>
<path d="M161.702 97.5792C161.291 97.6607 161.127 97.6743 160.708 97.6882C160.415 96.3122 160.358 94.6156 160.133 93.1669C159.36 88.1898 158.112 83.1802 155.916 78.6185C154.216 75.089 152.32 72.129 151.22 68.2646C150.374 65.2904 151.141 61.1823 155.247 63.0503C159.782 65.5359 159.253 74.6976 157.124 78.5347C159.563 83.6464 161.434 91.9413 161.702 97.5792ZM153.136 63.6814C152.671 63.8978 152.346 64.0784 152.167 64.5829C151.157 67.4378 154.3 73.1343 155.644 75.7335C155.945 76.3161 156.231 76.9146 156.57 77.4753C157.811 75.1687 157.747 69.7687 156.999 67.2521C156.626 65.998 155.952 64.6484 154.768 63.9911C154.214 63.6839 153.756 63.6437 153.136 63.6814Z" fill="#F2E8ED"/>
<path d="M106.482 62.7967C107.389 62.6986 107.562 62.5574 108.238 63.0916C107.847 63.2074 107.135 63.3959 106.784 63.5477C106.594 63.2244 106.585 63.1645 106.482 62.7967Z" fill="#F2E8ED"/>
<path d="M80.8592 63.534C80.2418 63.5963 79.2734 63.9133 78.6668 64.0977C74.3386 65.4131 70.0773 67.3459 66.4498 70.0707C65.9978 70.4102 65.4365 70.8719 64.8611 70.9492L64.8119 70.8869C65.2924 69.6088 68.864 67.6625 70.1623 66.9293C73.4338 65.0814 77.0873 63.8627 80.6974 62.8701L80.7781 62.8887L80.8662 63.4781L80.8592 63.534Z" fill="#68504D"/>
<path d="M80.8662 63.478C81.3746 63.3239 81.7941 63.2614 82.3134 63.1733C82.7257 64.7132 83.358 66.3452 84.3111 67.6374C83.9773 67.9276 83.5144 68.0382 83.0833 68.1854C83.0365 68.0216 82.8621 67.7105 82.7599 67.57C81.8544 66.3241 81.4841 64.7628 80.8591 63.5339L80.8662 63.478Z" fill="#D199B0"/>
<path d="M156.57 77.4754C156.231 76.9146 155.945 76.3162 155.644 75.7336C154.3 73.1344 151.158 67.4379 152.167 64.583C152.346 64.0785 152.671 63.8978 153.136 63.6814C153.756 63.6437 154.215 63.684 154.768 63.9912C155.952 64.6484 156.626 65.998 156.999 67.2521C157.747 69.7687 157.811 75.1687 156.57 77.4754Z" fill="#D199B0"/>
<path d="M123.671 64.3748L126.568 65.3996C129.58 66.5994 136.252 70.1318 138.161 72.6359L138.141 72.8414L137.984 72.9539C137.324 72.7873 136.522 71.8775 135.949 71.4429C133.105 69.2839 129.981 67.4021 126.656 66.0918C125.574 65.6865 124.445 65.2382 123.343 64.9074L123.328 64.8531L123.671 64.3748Z" fill="#68504D"/>
<path d="M122.07 64.4607C122.577 64.589 122.837 64.6544 123.328 64.8531L123.343 64.9074C123.048 65.7546 121.872 68.7636 121.727 69.4695C121.488 69.2816 120.588 68.8775 120.261 68.7218C120.874 67.4376 121.722 65.8087 122.07 64.4607Z" fill="#D199B0"/>
<path d="M121.727 69.4696C121.872 68.7637 123.048 65.7547 123.343 64.9075C124.445 65.2383 125.574 65.6866 126.656 66.0919C126.584 67.9688 126.473 70.6508 126.288 72.5001C124.758 71.3557 123.31 70.5153 121.727 69.4696Z" fill="#F2E8ED"/>
<path d="M85.0881 67.2638C85.8717 66.9228 91.265 64.6888 91.6023 65.8437C91.2568 66.0296 90.6469 66.0449 90.2346 66.129C88.4566 66.4917 86.7371 67.231 85.0627 67.9163L84.9889 67.8503C84.7514 67.8441 84.8264 67.8587 84.5967 67.7884L84.7379 67.6185L84.734 67.6937L84.7895 67.5527C84.9187 67.4771 84.9898 67.3749 85.0881 67.2638Z" fill="#68504D"/>
<path d="M111.642 65.884L111.482 65.7252C111.588 65.5967 111.735 65.4141 111.913 65.4397C114.085 65.7522 118.473 67.9651 120.261 68.7219C120.588 68.8776 121.488 69.2817 121.727 69.4696C123.31 70.5153 124.758 71.3557 126.288 72.5C129.367 74.9961 132.139 77.4266 134.499 80.6465C134.866 81.1471 135.98 82.2334 135.556 82.8231C135.361 82.8258 135.307 82.8614 135.165 82.6586C132.912 79.4358 129.651 75.4864 126.344 73.3047C125.26 72.4284 122.772 70.7957 121.587 70.0412C120.993 69.5778 120.496 69.3932 119.8 69.1612C117.206 68.1381 114.6 66.6909 111.819 65.9625L111.642 65.884Z" fill="url(#paint1_linear_352_3292)"/>
<path d="M113.56 68.186C113.339 67.9059 112.801 67.1418 112.547 67.0307L112.34 67.4108L112.204 67.4159C111.823 67.1335 111.478 66.9102 111.167 66.5524C111.101 66.2084 111.09 66.3751 111.218 66.036C111.333 65.9989 111.425 65.9678 111.54 65.9239L111.642 65.884L111.819 65.9626C112.928 66.9733 113.122 66.4389 113.56 68.186Z" fill="#F2E8ED"/>
<path d="M108.879 67.6396C108.223 67.4305 107.713 67.3301 107.167 66.9109L107.18 66.8057L107.181 66.8824L107.32 66.9842L107.407 66.8141C107.91 66.892 108.481 67.1352 108.958 67.3305L108.879 67.6396Z" fill="#F2E8ED"/>
<path d="M84.3111 67.6375C84.5779 67.451 84.7857 67.3901 85.0881 67.2639C84.9898 67.375 84.9188 67.4772 84.7895 67.5528L84.734 67.6938L84.7379 67.6186L84.5967 67.7885C84.8264 67.8588 84.7514 67.8442 84.9889 67.8504L85.0627 67.9165L84.6549 68.1719C84.2359 68.3372 83.7602 68.4668 83.4779 68.8055L83.4051 68.8057C83.3291 68.4905 83.2715 68.4756 83.043 68.2452L83.0834 68.1856C83.5145 68.0383 83.9773 67.9278 84.3111 67.6375Z" fill="#825552"/>
<path d="M83.4781 68.8055C83.7603 68.4668 84.2361 68.3371 84.655 68.1719C85.2076 68.9551 86.0427 69.7787 86.7115 70.4736C90.0581 73.9518 93.8443 75.6355 98.5365 76.4678C104.95 77.6055 110.941 76.3281 116.262 72.5137C117.805 71.4078 118.535 70.5898 119.8 69.1611C120.496 69.3932 120.993 69.5777 121.587 70.0412C121.393 74.7049 122.364 79.1314 126.052 82.293C128.65 84.7559 133.24 86.8873 136.459 88.5455C141.743 91.268 145.059 93.5289 149.131 97.8016C150.59 99.5215 151.198 100.638 152.376 102.522C153.423 104.405 154.408 106.78 155.222 108.791C156.821 113.846 157.788 118.468 157.649 123.802C157.599 125.695 157.41 127.373 157.307 129.22C158.293 130.288 158.986 131.635 159.749 132.871C164.194 140.076 166.827 148.935 160.415 155.946C153.74 163.244 143.898 165.722 134.524 167.448C132.894 167.749 131.295 168.225 129.702 168.673C124.825 169.901 120.185 172.782 115.047 172.553C111.144 172.394 105.936 170.088 106.955 165.298C107.806 162.884 108.943 161.979 111.014 160.615C117.143 157.44 123.874 156.563 130.464 154.891C134.409 153.89 139.557 152.362 143.14 150.411C138.657 151.213 134.411 151.825 129.864 152.266C127.589 152.486 125.019 152.913 122.736 152.772C120.713 152.646 119.45 152.134 118.14 150.571C117.992 150.279 117.829 149.886 117.692 149.579C115.268 149.468 113.96 149.397 111.663 148.587C109.021 152.33 102.198 154.025 98.4259 150.854C95.8042 148.65 96.9771 145.569 99.0294 143.389C99.9173 142.789 100.656 142.378 101.601 141.867L101.902 140.873C99.7259 140.617 98.4814 140.35 96.4374 139.692C96.0478 140.785 95.6581 141.861 95.2482 142.946C93.3124 148.081 91.0976 149.287 85.4286 149.555C82.3988 149.527 79.2607 148.147 79.273 144.747C79.2859 141.133 83.1113 140.35 84.2165 139.186C85.224 138.125 85.6345 131.257 85.6583 129.433C85.7923 128.666 85.7617 124.927 85.7494 123.975C85.6882 119.213 85.362 113.751 84.5829 109.034C83.7111 104.67 82.7786 100.366 82.4197 95.9369C81.9726 90.4248 84.4081 86.9434 85.587 81.9518C86.1913 79.3924 85.938 74.6914 85.9525 71.8447C85.1052 70.8023 84.314 69.8762 83.4781 68.8055ZM157.377 131.35C157.199 130.967 157.115 130.838 156.878 130.484C155.596 135.159 154.563 139.234 150.435 142.389C150.534 142.556 150.802 143.036 150.91 143.158L151.207 143.734C151.704 146.822 150.455 147.792 147.892 149.071L147.277 149.364C146.129 150.215 140.907 152.877 139.571 153.338L139.026 153.571C135.832 154.454 132.915 155.585 129.597 156.259L128.981 156.465C124.636 157.442 105.495 160.633 108.198 167.614L108.335 167.849C108.735 168.988 109.951 169.85 111.002 170.348C114.898 172.196 119.372 171.058 123.213 169.665C124.254 169.287 125.302 168.904 126.32 168.471L127.334 168.118C128.713 167.814 130.064 167.341 131.431 166.979C133.222 166.504 135.04 166.142 136.858 165.787L138.248 165.489C141.367 164.976 144.551 164.002 147.502 162.875C147.849 162.763 148.185 162.62 148.523 162.482C158.677 158.297 166.193 151.281 161.713 139.542C161.225 138.211 160.303 136.399 159.631 135.147C158.903 133.735 158.251 132.67 157.377 131.35ZM86.2243 111.064C87.079 117.957 87.4259 126.781 86.6345 133.707C86.5398 134.867 85.8443 139.298 85.4751 140.251C82.415 141.37 78.8079 143.062 81.1523 146.994C81.1513 145.176 81.5154 142.945 83.7216 142.596L83.9613 142.68C84.1029 143.031 84.0601 142.919 84.012 143.337C83.3804 144.354 82.5302 144.024 82.4243 145.626C82.2265 148.622 83.9429 148.376 86.2552 148.335C86.1495 146.467 86.174 144.063 88.439 143.437C89.4193 143.638 88.806 144.445 88.2837 144.788C87.2355 145.477 87.4888 147.05 87.6369 148.117C89.6204 147.778 91.6259 147.227 92.8257 145.462C93.8992 143.883 95.9421 137.358 96.5603 135.337C97.0011 133.306 98.6435 129.187 99.4349 127.113C94.0105 122.562 89.3099 117.476 86.2243 111.064ZM103.453 128.822C103.569 121.454 103.507 114.349 101.548 107.2C101.302 106.302 100.336 103.12 100.794 102.291C100.863 102.167 100.968 102.2 101.149 102.18C101.958 102.577 101.97 104.391 102.236 105.219C104.439 112.1 104.845 119.444 104.739 126.624C104.706 128.849 104.666 131.483 104.337 133.681C104.051 136.102 103.411 140.569 102.627 142.876C99.3443 144.126 96.5521 146.342 99.1492 149.989C99.2144 148.578 99.1841 147.352 100.323 146.315C100.589 146.074 100.76 145.917 101.12 145.929C101.458 146.134 101.335 145.997 101.506 146.353C101.455 147.113 100.867 147.245 100.652 147.8C99.424 150.97 101.375 151.536 103.934 151.298C103.797 149.741 103.943 147.596 105.52 146.763C105.992 146.757 105.994 146.921 106.134 147.344C105.167 148.999 104.937 149.256 105.168 151.136C107.462 150.604 109.582 149.776 110.842 147.659C112.183 145.404 112.852 142.727 113.656 140.248C114.191 138.599 114.764 136.979 115.313 135.342C115.701 133.649 116.326 132.048 116.817 130.37C118.369 125.075 119.611 119.654 120.575 114.221C120.898 112.397 120.985 110.51 121.414 108.694C121.529 108.192 121.624 107.894 121.961 107.516C122.28 107.4 122.119 107.402 122.457 107.547C122.689 107.808 122.748 108.032 122.697 108.377C121.253 118.158 119.263 127.856 115.918 137.182C115.666 137.887 115.405 138.616 115.182 139.328C118.498 140.5 124.471 141.57 127.938 141.517C117.604 133.287 120.069 119.828 127.179 110.243C130.102 106.302 138.015 102.155 143.429 104.408C143.59 104.475 143.642 104.689 143.692 104.845C143.596 105.238 143.701 105.097 143.406 105.312C142.57 105.454 141.939 105.087 141.16 105.012C136.178 104.53 130.502 107.62 127.764 111.645C124.051 117.104 121.478 123.565 122.572 130.241C123.273 134.502 125.378 138.003 128.847 140.578C129.256 140.881 130.826 141.861 131.036 142.19L131.061 142.668C130.029 143.053 128.789 142.681 127.718 142.856C124.592 143.366 119.85 144.747 118.597 147.948C118.682 148.574 118.75 149.2 118.821 149.828C119.007 149.007 119.207 147.748 120.121 147.433C120.742 147.736 120.218 149.328 120.236 149.902C120.251 150.366 120.31 150.539 120.479 150.97L120.523 151.079C121.097 151.287 121.554 151.357 122.153 151.468C122.176 149.833 122.493 147.538 124.326 146.79C124.724 146.628 125.215 146.9 125.262 147.396C124.901 148.122 123.789 148.742 123.561 149.516C123.436 149.941 123.524 151.169 123.542 151.662C126.156 151.688 129.748 151.101 132.509 150.707C137.738 149.961 143.993 149.794 148.743 147.322C149.734 146.807 150.087 145.967 150.327 144.967C149.942 143.433 149.398 143.072 148.659 141.785C148.794 141.505 148.77 141.499 149.034 141.349L149.154 141.355C149.887 141.387 149.885 141.339 150.435 140.842C154.543 137.127 156.282 129.619 156.477 124.262C156.648 119.546 156.017 116.011 154.769 111.549C152.382 102.079 146.177 95.5019 137.697 90.926C128.365 85.8902 119.817 82.9533 120.298 70.432C118.339 72.9805 116.59 74.2479 113.733 75.6795C105.175 79.9668 94.9591 78.6848 87.4081 72.9605C87.3033 75.9098 87.5704 79.0482 86.9841 81.9525C86.6595 83.5613 85.9997 85.1004 85.4423 86.6387C83.9566 90.7391 83.4374 94.5 84.087 98.8281C84.4757 101.419 84.8128 104.168 85.6579 106.65C88.5341 115.097 96.3476 123.565 103.453 128.822ZM100.516 128.048C99.499 130.409 98.5495 133.09 97.8085 135.545C97.4788 136.555 97.1511 137.604 96.8023 138.603C98.8183 139.187 100.083 139.495 102.217 139.608C102.372 138.893 102.5 138.304 102.595 137.579C102.934 136.504 103.219 131.633 103.283 130.459C102.371 129.568 101.5 128.86 100.516 128.048ZM116.272 141.059C115.688 141.577 115.104 141.692 114.358 141.831C113.822 143.783 113.298 145.552 112.347 147.351C113.072 147.555 113.794 147.766 114.527 147.941C114.567 146.852 114.814 145.858 115.639 145.071C115.806 144.911 116.014 144.769 116.252 144.754C116.497 144.739 116.651 144.821 116.83 144.971C116.893 145.222 116.877 145.349 116.748 145.58C116.325 146.332 115.501 147.012 115.752 147.973C115.78 148.08 115.785 148.072 115.845 148.145L117.537 148.355C117.742 146.804 118.393 145.59 119.644 144.639C120.91 143.676 122.577 143.11 124.065 142.57C122.689 142.221 121.276 142 119.882 141.732C118.683 141.501 117.484 141.208 116.272 141.059Z" fill="#D199B0"/>
<path d="M83.4051 68.8057C78.9204 71.1602 74.9448 74.3225 71.7196 78.2066C71.4805 78.4943 71.1168 78.9914 70.803 79.0127L70.6565 78.8701C70.6567 78.2492 71.6807 77.2174 72.1014 76.7398C75.2352 73.182 78.9454 70.5631 83.043 68.2451C83.2715 68.4756 83.3292 68.4904 83.4051 68.8057Z" fill="url(#paint2_linear_352_3292)"/>
<path d="M111.645 71.37C111.519 71.3497 111.402 71.3247 111.285 71.269C110.596 70.9401 110.187 70.2883 109.936 69.595C110.387 69.7301 110.916 69.9129 111.256 70.2526C111.607 70.6028 111.639 70.887 111.645 71.37Z" fill="#F2E8ED"/>
<path d="M121.587 70.0413C122.772 70.7958 125.26 72.4284 126.344 73.3047C126.132 75.2877 125.994 77.0504 126.041 79.0487C126.053 79.5385 126.154 82.0364 126.052 82.293C122.364 79.1315 121.392 74.7049 121.587 70.0413Z" fill="#F2E8ED"/>
<path d="M104.337 133.681C104.665 131.483 104.706 128.85 104.739 126.624C104.845 119.444 104.438 112.1 102.236 105.219C101.97 104.391 101.958 102.577 101.149 102.18C100.968 102.2 100.863 102.167 100.793 102.292C100.336 103.12 101.302 106.302 101.548 107.2C103.507 114.349 103.569 121.455 103.452 128.823C96.3474 123.566 88.5339 115.097 85.6577 106.65C84.8126 104.168 84.4755 101.419 84.0868 98.8282C83.4372 94.5001 83.9564 90.7392 85.4421 86.6388C85.9995 85.1005 86.6593 83.5614 86.9839 81.9526C87.5702 79.0483 87.303 75.9099 87.4079 72.9606C94.9589 78.6849 105.175 79.9669 113.733 75.6796C116.59 74.248 118.339 72.9806 120.298 70.4321C119.817 82.9534 128.365 85.8903 137.697 90.9261C146.176 95.502 152.381 102.08 154.768 111.549C156.016 116.011 156.648 119.546 156.477 124.262C156.282 129.619 154.543 137.127 150.434 140.842C149.884 141.339 149.887 141.387 149.154 141.355L149.034 141.349C148.77 141.499 148.794 141.505 148.659 141.785L148.553 141.716L148.477 141.849C148.17 141.889 148.246 141.941 148.061 141.829C148.076 141.405 148.927 140.416 149.204 140.002C156.254 129.442 154.992 113.873 147.287 103.991C146.395 102.846 145.562 101.659 144.55 100.609C142.008 98.0749 139.05 95.8366 136.028 93.9067C131.559 91.0522 126.281 88.8472 122.892 84.6444C121.154 82.4894 120.172 80.2481 119.301 77.6798C119.222 77.4464 118.925 77.0966 118.661 77.0333C118.459 77.4577 118.617 78.005 118.756 78.43C119.766 81.511 122.091 85.5876 124.667 87.6138C131.428 92.9302 138.747 95.3433 144.686 102.022C153.159 111.405 155.698 125.338 150.16 136.848C148.911 139.442 146.42 143.137 143.54 144.045C139.654 145.269 134.846 143.375 131.061 142.668L131.035 142.19C130.826 141.861 129.256 140.881 128.847 140.578C125.378 138.003 123.273 134.502 122.572 130.241C121.477 123.565 124.05 117.104 127.764 111.645C130.502 107.62 136.178 104.53 141.159 105.012C141.939 105.087 142.57 105.454 143.405 105.312C143.701 105.097 143.596 105.238 143.692 104.845C143.641 104.69 143.59 104.475 143.429 104.408C138.014 102.155 130.102 106.302 127.179 110.243C120.069 119.828 117.604 133.287 127.938 141.517C124.471 141.57 118.498 140.5 115.182 139.328C115.405 138.616 115.665 137.887 115.918 137.182C119.262 127.856 121.253 118.158 122.697 108.377C122.748 108.032 122.688 107.808 122.457 107.547C122.119 107.402 122.28 107.4 121.961 107.516C121.624 107.894 121.529 108.192 121.413 108.694C120.985 110.51 120.898 112.397 120.575 114.221C119.611 119.654 118.369 125.075 116.817 130.37C116.325 132.048 115.701 133.649 115.313 135.342C112.217 135.717 110.046 135.961 106.912 134.877C106.26 134.651 104.934 133.741 104.337 133.681Z" fill="#F2E8ED"/>
<path d="M37.8424 79.7955C36.4732 80.0205 35.1791 79.0982 34.9451 77.7305C34.7111 76.3629 35.6252 75.0627 36.9912 74.8199C38.3701 74.5748 39.6848 75.499 39.9207 76.8793C40.1568 78.2596 39.2242 79.5684 37.8424 79.7955ZM37.1107 75.8822C36.6072 76.1828 36.2051 76.4652 36.0525 77.0613C35.9551 77.4416 35.9908 77.8441 36.1984 78.1822C36.3939 78.5004 36.7564 78.7715 37.1215 78.8578C37.3392 78.9092 37.5935 78.9062 37.8164 78.9014C38.3191 78.6418 38.6549 78.3623 38.8252 77.8031C38.9543 77.3795 38.9016 76.9123 38.668 76.5344C38.5051 76.2707 38.1976 75.9893 37.8892 75.9125C37.6285 75.8475 37.3746 75.8644 37.1107 75.8822Z" fill="#D199B0"/>
<path d="M37.8164 78.9015C37.5936 78.9064 37.3393 78.9093 37.1215 78.8579C36.7565 78.7716 36.394 78.5005 36.1985 78.1823C35.9909 77.8442 35.9551 77.4417 36.0526 77.0614C36.2051 76.4653 36.6073 76.1829 37.1108 75.8823C37.3747 75.8646 37.6286 75.8476 37.8893 75.9126C38.1977 75.9894 38.5051 76.2708 38.668 76.5345C38.9016 76.9124 38.9543 77.3796 38.8252 77.8032C38.6549 78.3624 38.3192 78.6419 37.8164 78.9015Z" fill="#F2E8ED"/>
<path d="M131.061 142.668C134.846 143.374 139.654 145.269 143.54 144.045C146.42 143.137 148.911 139.442 150.16 136.847C155.698 125.338 153.16 111.404 144.687 102.022C138.747 95.3432 131.428 92.9301 124.667 87.6137C122.091 85.5875 119.766 81.5109 118.756 78.4299C118.617 78.0049 118.459 77.4576 118.662 77.0332C118.925 77.0965 119.222 77.4463 119.301 77.6797C120.172 80.248 121.154 82.4893 122.892 84.6443C126.281 88.8471 131.559 91.0521 136.028 93.9066C139.05 95.8365 142.008 98.0748 144.551 100.609C145.562 101.659 146.395 102.846 147.287 103.99C154.992 113.873 156.254 129.441 149.204 140.002C148.928 140.416 148.077 141.405 148.061 141.829C148.246 141.941 148.17 141.889 148.477 141.848L148.553 141.716L148.659 141.785C149.398 143.072 149.942 143.433 150.327 144.967C150.087 145.967 149.734 146.807 148.743 147.322C143.993 149.794 137.738 149.961 132.509 150.707C129.748 151.101 126.156 151.688 123.541 151.662C123.524 151.169 123.436 149.941 123.561 149.516C123.789 148.742 124.901 148.122 125.262 147.396C125.214 146.9 124.724 146.628 124.326 146.79C122.493 147.538 122.176 149.833 122.153 151.468C121.554 151.357 121.097 151.287 120.523 151.079L120.479 150.97C120.31 150.539 120.251 150.366 120.236 149.902C120.217 149.328 120.742 147.736 120.121 147.433C119.207 147.748 119.007 149.007 118.821 149.828C118.75 149.2 118.682 148.574 118.597 147.948C119.85 144.747 124.592 143.366 127.717 142.856C128.789 142.681 130.029 143.053 131.061 142.668Z" fill="#F2E8ED"/>
<path d="M153.655 88.6392C150.691 86.9777 146.663 84.5398 145.469 81.2037C145.192 80.43 145.058 79.4363 145.438 78.6718C145.775 77.9943 146.408 77.7054 147.084 77.4624C147.371 77.446 147.665 77.4226 147.952 77.4343C149.402 77.4937 150.855 78.5732 151.816 79.5841C153.523 81.38 154.462 83.5613 154.999 85.9523C155.139 86.5744 155.322 87.2915 155.282 87.9333C155.264 88.2365 155.205 88.4683 154.972 88.6783C154.511 88.8597 154.115 88.7896 153.655 88.6392ZM147.497 78.5333C146.99 78.7122 146.558 78.8884 146.328 79.4081C146.114 79.8904 146.332 80.4806 146.545 80.9197C147.864 83.6464 150.944 85.9753 153.548 87.4064L154.339 87.7853C153.869 84.6615 152.562 81.2427 149.903 79.3126C149.163 78.7753 148.418 78.4757 147.497 78.5333Z" fill="#F2E8ED"/>
<path d="M47.8671 92.8672C48.0403 92.6324 48.0612 92.5425 47.995 92.2261C47.0587 87.7535 44.8821 82.0968 48.8784 78.4535C50.4073 77.0595 52.8643 77.8254 53.1694 79.8959C53.6655 83.2605 51.8132 86.5398 50.3626 89.4554C49.801 90.5697 49.1235 91.6472 48.8534 92.8679L47.8671 92.8672ZM50.4046 78.7242C49.2932 79.1849 48.5796 79.9806 48.1139 81.0826C46.8759 84.0136 47.6932 87.3777 48.5227 90.2998L48.6348 90.3912C48.7374 90.2927 48.8198 90.2097 48.903 90.0935C50.3079 87.7236 52.843 82.6183 52.1997 79.9609C52.0923 79.5174 51.8669 79.1433 51.468 78.9068C51.1143 78.697 50.7991 78.6929 50.4046 78.7242Z" fill="#D199B0"/>
<path d="M164.503 86.53C164.196 86.7104 163.945 86.9042 163.573 86.8946C163.041 86.677 162.749 86.2454 162.506 85.7395C161.698 84.0618 161.244 81.7134 161.916 79.9175C162.279 78.9468 162.827 78.452 163.759 78.0497C164.661 77.9997 165.601 78.1356 166.285 78.7854C166.938 79.4061 167.125 80.3458 167.114 81.2137C167.086 83.3667 166.009 85.0817 164.503 86.53ZM164.072 79.0005C163.362 79.4821 163.036 80.0432 162.867 80.8825C162.646 81.9737 162.947 84.6884 163.587 85.6055C163.641 85.6831 163.665 85.7016 163.735 85.7749C164.024 85.7649 164.125 85.5958 164.337 85.4114C165.34 84.1036 166.245 82.5413 166.015 80.82C165.935 80.2182 165.675 79.7216 165.173 79.3684C164.857 79.1462 164.454 79.0323 164.072 79.0005Z" fill="#F2E8ED"/>
<path d="M153.549 87.4064C150.944 85.9754 147.864 83.6465 146.545 80.9197C146.332 80.4807 146.114 79.8904 146.328 79.4082C146.558 78.8885 146.99 78.7123 147.498 78.5334C148.418 78.4758 149.163 78.7754 149.903 79.3127C152.562 81.2428 153.869 84.6615 154.339 87.7854L153.549 87.4064Z" fill="#D199B0"/>
<path d="M48.9029 90.0935C48.8197 90.2097 48.7373 90.2927 48.6347 90.3912L48.5226 90.2998C47.6931 87.3777 46.8757 84.0136 48.1138 81.0826C48.5795 79.9806 49.2931 79.1849 50.4045 78.7242C50.799 78.6929 51.1142 78.697 51.4679 78.9068C51.8668 79.1433 52.0921 79.5174 52.1996 79.9609C52.8429 82.6183 50.3078 87.7236 48.9029 90.0935Z" fill="#F2E8ED"/>
<path d="M164.337 85.4114C164.125 85.5958 164.024 85.7649 163.735 85.7749C163.665 85.7017 163.641 85.6831 163.587 85.6056C162.947 84.6884 162.646 81.9737 162.867 80.8825C163.036 80.0433 163.362 79.4821 164.072 79.0005C164.454 79.0323 164.857 79.1462 165.173 79.3685C165.675 79.7216 165.935 80.2183 166.015 80.82C166.245 82.5413 165.34 84.1036 164.337 85.4114Z" fill="#D199B0"/>
<path d="M36.2132 89.6257C34.0976 88.4741 31.957 86.8114 30.8091 84.6403C30.3853 83.8386 30.1138 82.8374 30.4179 81.9487C30.6707 81.2105 31.2627 80.72 31.9359 80.3763C32.5339 80.3589 32.9736 80.3675 33.5232 80.6485C35.2927 81.5534 36.4066 83.7946 37.0222 85.5903C37.3972 86.6845 37.9855 88.4148 37.4519 89.5105C37.0353 89.7911 36.6857 89.7126 36.2132 89.6257ZM32.4164 81.4575C32.0068 81.5663 31.7371 81.713 31.524 82.0935C31.2955 82.5015 31.3646 82.956 31.509 83.3782C32.2472 85.536 34.1283 87.1024 35.9787 88.3044L36.3728 88.5415L36.4808 88.4794C36.3468 86.4593 35.0857 83.2857 33.5254 81.9474C33.1744 81.6464 32.8654 81.5347 32.4164 81.4575Z" fill="#D199B0"/>
<path d="M35.9787 88.3044C34.1283 87.1024 32.2473 85.536 31.509 83.3782C31.3647 82.956 31.2955 82.5015 31.524 82.0935C31.7371 81.713 32.0069 81.5663 32.4164 81.4575C32.8654 81.5347 33.1744 81.6464 33.5254 81.9474C35.0858 83.2856 36.3469 86.4593 36.4809 88.4794L36.3729 88.5415L35.9787 88.3044Z" fill="#F2E8ED"/>
<path d="M43.9043 92.9651L44.7441 92.8921C45.784 92.8777 46.8273 92.8566 47.867 92.8671L48.8533 92.8679C53.9318 92.9761 61.5441 94.1116 65.4223 97.6319C66.3535 98.4775 66.8473 99.8712 66.6881 101.112C66.1084 105.631 65.9201 110.325 65.3611 114.826C65.0758 118.001 64.6199 121.59 64.4463 124.725C64.0123 129.432 63.5201 134.161 63.2744 138.878C63.168 140.917 63.3574 142.217 61.5482 143.638C59.0408 145.606 56.0381 146.584 52.9455 147.165C52.5723 147.228 52.1779 147.288 51.7934 147.336C45.1289 148.075 36.8713 148.109 31.1639 144.17C29.3365 142.909 29.5756 140.539 29.3426 138.513C28.8514 134.244 28.558 129.94 28.0699 125.668L26.3572 108.562C26.1182 106.066 25.8488 103.531 25.6494 101.033C25.5488 99.7698 25.8523 98.8388 26.7479 97.9107C30.1602 94.3741 39.1641 93.0804 43.9043 92.9651ZM45.9186 93.9526C45.2889 93.9573 44.8125 93.9708 44.185 94.0239C43.0781 94.089 41.641 94.186 40.5408 94.3316C40.1846 94.3552 39.7998 94.3732 39.4471 94.412C35.6531 94.9318 30.016 95.8794 27.252 98.8989C25.951 100.32 27.6002 102.367 28.9111 103.07C34.8203 106.467 42.1842 106.842 48.8275 106.743C49.2342 106.751 49.5883 106.717 49.9904 106.685C51.391 106.581 52.7277 106.398 54.109 106.156C54.724 106.082 55.9107 105.806 56.5623 105.677L57.5293 105.434C60.0453 104.751 68.7906 101.915 64.1682 98.0446C61.9541 96.1909 58.568 95.4048 55.7762 94.762L54.8223 94.5837C52.5961 94.2546 50.7801 94.0683 48.524 93.9191C48.0939 93.854 48.0682 93.8435 47.65 93.9277C47.1103 93.954 46.467 93.9456 45.9186 93.9526ZM55.1908 107.086C53.8723 107.384 51.8723 107.69 50.4951 107.727C50.15 107.729 49.6352 107.711 49.3098 107.775C42.9219 108.21 31.91 107.376 26.926 103.005C27.7543 110.168 28.1328 117.761 29.0914 124.879C29.4377 130.448 30.4141 136.396 30.7818 142.076C31.9432 143.781 33.9336 144.636 35.8182 145.329C37.5361 145.721 39.3633 146.262 41.1916 146.413C47.4424 146.93 55.282 146.876 60.5621 143.076C60.9871 142.77 61.915 141.782 61.9576 141.308C62.7658 132.318 63.2775 123.292 64.2959 114.319C64.375 113.782 64.4096 113.193 64.4623 112.649C64.7746 109.43 65.0598 106.212 65.4855 103.004C62.1377 105.473 59.1891 106.281 55.1908 107.086Z" fill="#D199B0"/>
<path d="M47.65 93.9277C48.0682 93.8435 48.094 93.8541 48.5241 93.9191C47.9946 95.6144 47.5188 97.6062 46.9235 99.2242C46.7116 99.5857 46.7473 99.6701 46.4407 99.8164C46.3825 99.7792 46.2346 99.6914 46.1907 99.6492C46.2254 99.2191 46.3532 98.774 46.4629 98.3556L47.65 93.9277Z" fill="#D199B0"/>
<path d="M44.1849 94.0239C44.8125 93.9708 45.2888 93.9573 45.9185 93.9526C45.5677 94.0198 45.4277 93.9755 45.2459 94.1855C45.2847 94.945 46.0676 97.7491 46.4629 98.3556C46.3531 98.7739 46.2254 99.219 46.1906 99.6491C46.0322 99.3833 46.1467 99.4601 45.8715 99.3718C45.2621 98.1698 44.5045 95.363 44.1849 94.0239Z" fill="#F2E8ED"/>
<path d="M45.9185 93.9527C46.4669 93.9457 47.1103 93.9541 47.65 93.9277L46.4628 98.3557C46.0675 97.7492 45.2847 94.9451 45.2458 94.1855C45.4277 93.9756 45.5677 94.0199 45.9185 93.9527Z" fill="#F2E8ED"/>
<path d="M48.524 93.9192C50.7801 94.0684 52.5961 94.2547 54.8223 94.5838C55.3799 96.8417 56.5688 103.539 56.5623 105.677C55.9108 105.806 54.724 106.082 54.109 106.156C53.991 106.042 53.9074 105.957 53.7418 105.82C52.0364 104.416 50.1889 103.23 48.408 101.927C48.3354 101.935 48.2625 101.942 48.1897 101.95C48.1096 101.783 47.9811 101.253 47.8664 100.983C47.5893 100.33 47.2865 99.8336 46.9235 99.2243C47.5188 97.6063 47.9946 95.6145 48.524 93.9192Z" fill="#F2E8ED"/>
<path d="M40.5409 94.3315C41.6411 94.186 43.0782 94.089 44.185 94.0239C44.5046 95.363 45.2622 98.1698 45.8716 99.3718C44.2466 99.3073 41.4143 95.6472 40.5409 94.3315Z" fill="#F2E8ED"/>
<path d="M39.447 94.412C39.7998 94.3731 40.1845 94.3552 40.5408 94.3315C41.4142 95.6472 44.2464 99.3073 45.8714 99.3718C46.1466 99.4601 46.0322 99.3833 46.1906 99.6491C46.2345 99.6913 46.3824 99.7792 46.4406 99.8163C46.7472 99.67 46.7115 99.5856 46.9234 99.2241C47.2865 99.8335 47.5892 100.33 47.8664 100.983C47.981 101.253 48.1095 101.783 48.1896 101.95C48.8341 103.399 49.5988 105.152 49.9904 106.685C49.5882 106.717 49.2341 106.751 48.8275 106.743C48.7169 106.3 48.2955 105.314 48.1166 104.847C47.5832 103.455 47.0351 102.164 46.6041 100.731C43.0076 99.5458 41.3384 97.6222 39.447 94.412Z" fill="#D199B0"/>
<path d="M48.8275 106.743C42.1841 106.842 34.8202 106.467 28.9111 103.07C27.6001 102.367 25.9509 100.32 27.2519 98.899C30.016 95.8795 35.6531 94.9318 39.447 94.4121C41.3384 97.6223 43.0076 99.5459 46.604 100.731C47.0351 102.164 47.5831 103.455 48.1165 104.847C48.2954 105.314 48.7169 106.3 48.8275 106.743Z" fill="#F2E8ED"/>
<path d="M54.8223 94.5837L55.7762 94.7621C56.502 97.7289 57.4031 102.364 57.5293 105.434L56.5623 105.677C56.5687 103.539 55.3799 96.8416 54.8223 94.5837Z" fill="#D199B0"/>
<path d="M55.7761 94.7622C58.5679 95.405 61.954 96.1911 64.1681 98.0448C68.7906 101.915 60.0453 104.751 57.5292 105.434C57.4031 102.364 56.5019 97.729 55.7761 94.7622Z" fill="#F2E8ED"/>
<path d="M153.372 97.8273C152.932 97.1734 151.758 95.6691 151.999 94.906C152.909 94.5927 154.267 97.1642 154.717 97.8443C154.307 97.8728 153.889 97.9148 153.48 97.8982L153.372 97.8273Z" fill="#D199B0"/>
<path d="M161.912 107.81C161.901 107.509 161.831 107.017 161.914 106.732C162.067 106.206 163.56 105.096 163.983 104.555C165.78 102.258 168.087 97.1063 170.617 96.0044C170.772 95.9956 170.948 95.9762 171.101 96.0016C171.333 96.0401 171.529 96.1948 171.628 96.4063C172.045 97.2899 171.961 98.3948 171.679 99.2993C170.582 102.821 165.986 105.837 162.835 107.438L161.912 107.81Z" fill="#F2E8ED"/>
<path d="M149.131 97.8015L153.372 97.8271L153.48 97.898C154.056 98.7668 155.514 100.862 155.941 101.683L155.959 101.763C155.077 101.99 153.048 102.256 152.376 102.522C151.197 100.638 150.59 99.5214 149.131 97.8015Z" fill="#F2E8ED"/>
<path d="M154.816 97.9504C156.744 97.9313 158.795 97.8522 160.717 97.7561C161.189 100.423 161.15 104.482 160.98 107.154C159.657 105.064 158.224 103.389 156.871 101.134C156.4 100.229 155.41 98.8651 154.816 97.9504Z" fill="#F2E8ED"/>
<path d="M153.48 97.8981C153.889 97.9147 154.307 97.8728 154.717 97.8442L154.816 97.9505C155.41 98.8651 156.4 100.229 156.871 101.134L155.941 101.683C155.515 100.862 154.056 98.7669 153.48 97.8981Z" fill="#D199B0"/>
<path d="M152.375 102.522C153.048 102.256 155.077 101.99 155.958 101.763C157.493 103.454 159.044 106.658 160.86 108.25C160.809 108.965 160.756 109.615 160.67 110.326C159.704 110.011 158.543 109.758 157.549 109.444C156.935 109.25 155.775 108.858 155.222 108.791C154.408 106.78 153.423 104.405 152.375 102.522Z" fill="#F2E8ED"/>
<path d="M48.1897 101.95C48.2625 101.942 48.3354 101.935 48.4081 101.927C50.1889 103.23 52.0364 104.416 53.7418 105.82C53.9075 105.957 53.9911 106.042 54.109 106.156C52.7278 106.398 51.3911 106.581 49.9905 106.686C49.5989 105.152 48.8342 103.399 48.1897 101.95Z" fill="#D199B0"/>
<path d="M26.926 103.005C31.91 107.376 42.9219 108.21 49.3098 107.775C49.8764 108.983 50.5936 110.429 51.4487 111.439C50.4055 111.836 49.9317 112.021 49.0772 112.773C47.176 112.923 45.0473 112.898 43.2053 113.068C39.4868 113.413 33.75 114.496 31.1543 117.35C29.859 118.773 30.4051 121.305 30.609 123.177L30.6186 123.265C30.504 123.737 29.4883 124.539 29.0915 124.879C28.1329 117.761 27.7543 110.168 26.926 103.005Z" fill="#F2E8ED"/>
<path d="M55.1908 107.086C59.189 106.281 62.1377 105.473 65.4855 103.004C65.0597 106.212 64.7746 109.43 64.4623 112.649C64.4095 113.193 64.375 113.782 64.2959 114.319C63.9332 114.104 63.5377 113.725 63.2029 113.447C60.5801 111.269 57.8732 109.192 55.1908 107.086Z" fill="#F2E8ED"/>
<path d="M50.4951 107.727C51.8722 107.69 53.8722 107.384 55.1908 107.086C57.8732 109.192 60.58 111.269 63.2029 113.447C63.5376 113.725 63.9332 114.104 64.2958 114.319C63.2775 123.292 62.7658 132.319 61.9576 141.308C61.915 141.782 60.9871 142.77 60.5621 143.076C55.282 146.876 47.4423 146.93 41.1916 146.413C39.3632 146.262 37.5361 145.721 35.8181 145.329C36.1798 144.7 36.758 143.89 37.2347 143.342C38.0982 143.638 39.8519 143.875 40.8455 143.955C46.1781 144.342 52.0775 144.236 57.0617 142.119C60.6802 140.581 60.39 138.037 60.6425 134.746L61.0925 129.124C61.3511 125.977 61.6859 122.829 61.8291 119.677C61.9556 116.888 59.6476 116.051 57.4384 115.379C56.9755 112.086 55.372 111.989 52.538 111.418C51.9087 110.375 50.8755 108.833 50.4951 107.727Z" fill="#F2E8ED"/>
<path d="M49.3098 107.775C49.6352 107.711 50.15 107.729 50.4952 107.727C50.8756 108.833 51.9088 110.375 52.5381 111.418L51.4487 111.439C50.5936 110.429 49.8764 108.983 49.3098 107.775Z" fill="#D199B0"/>
<path d="M155.222 108.791C155.775 108.858 156.935 109.25 157.549 109.444C158.543 109.758 159.704 110.011 160.67 110.326C160.528 111.118 160.091 112.815 160.487 113.428C160.8 113.536 160.644 113.532 160.972 113.426C161.343 113.018 161.58 110.592 161.687 109.865C169.965 112.81 176.953 119.59 180.604 127.506C184.154 135.2 184.707 143.79 181.905 151.824C178.515 161.617 171.232 169.018 161.909 173.358C158.033 175.163 154.672 176.12 150.472 177.047C143.561 178.571 136.729 178.223 129.695 178.203C113.586 178.157 97.6601 180.51 81.7424 182.713C78.7523 183.103 75.7148 183.177 72.7224 183.48C54.1176 185.377 32.623 181.948 21.7558 164.983C15.9301 155.889 15.4977 143.978 20.475 134.399C21.4818 132.462 26.1013 126.215 28.0699 125.668C28.558 129.94 28.8513 134.244 29.3426 138.513C29.5756 140.539 29.3365 142.909 31.1638 144.17C36.8713 148.109 45.1289 148.075 51.7933 147.336C52.1779 147.288 52.5722 147.228 52.9455 147.165L52.9238 147.248C52.6471 148.26 52.1383 149.372 51.8332 150.358C51.2658 152.192 50.9303 155.615 51.284 157.503C50.6484 157.912 50.2748 158.158 49.8437 158.668C47.5263 161.412 49.7713 165.945 53.1566 166.351C53.1767 166.36 53.1969 166.369 53.217 166.377C53.2828 166.75 53.6264 167.152 53.8349 167.463C57.5793 173.044 63.7795 175.931 70.2131 177.184C78.2178 178.743 89.0363 177.911 96.3986 174.271C97.9486 173.505 99.3588 172.526 100.725 171.474C102.084 170.428 103.358 169.302 104.543 168.061C105.154 167.42 106.205 165.756 106.826 165.373C106.868 165.347 106.912 165.323 106.954 165.298C105.936 170.088 111.144 172.394 115.047 172.552C120.185 172.782 124.824 169.901 129.702 168.673C131.295 168.225 132.894 167.749 134.524 167.448C143.897 165.722 153.74 163.244 160.414 155.946C166.827 148.935 164.194 140.076 159.749 132.871C158.986 131.635 158.292 130.288 157.306 129.22C157.41 127.373 157.599 125.695 157.648 123.802C157.787 118.468 156.821 113.846 155.222 108.791Z" fill="#F2E8ED"/>
<path d="M86.6343 133.707C87.4257 126.781 87.0788 117.957 86.2241 111.064C89.3097 117.475 94.0103 122.562 99.4347 127.113C98.6433 129.187 97.0009 133.306 96.5601 135.337C96.0659 135.349 95.4452 135.447 94.8886 135.47C92.9978 135.548 91.2712 135.317 89.4782 134.715C88.6241 134.428 87.5456 133.762 86.7815 133.53L86.6343 133.707Z" fill="#F2E8ED"/>
<path d="M51.4487 111.439L52.5381 111.418C55.3721 111.989 56.9756 112.086 57.4385 115.379C59.6477 116.051 61.9557 116.888 61.8291 119.677C61.686 122.829 61.3512 125.977 61.0926 129.124L60.6426 134.746C60.3901 138.037 60.6803 140.581 57.0617 142.119C52.0776 144.236 46.1781 144.342 40.8455 143.955C39.852 143.875 38.0983 143.638 37.2348 143.342C31.7168 141.255 32.2637 139.284 31.7543 134.158L31.0809 127.848C30.9369 126.413 30.8205 124.67 30.6186 123.265L30.609 123.177C30.4051 121.305 29.859 118.773 31.1543 117.35C33.75 114.496 39.4867 113.413 43.2053 113.068C45.0473 112.898 47.176 112.923 49.0772 112.773C49.9317 112.021 50.4055 111.836 51.4487 111.439ZM48.2207 113.898C44.9739 113.593 42.1545 114.03 38.9807 114.705C38.4076 114.827 37.0883 115.064 36.6256 115.385L36.2309 115.483C35.4346 115.524 33.16 116.344 32.6799 117.018C31.3221 118.155 30.602 119.504 32.4076 120.739C35.6049 122.819 39.1303 123.123 42.8403 123.321C43.4453 123.482 46.4918 123.652 46.8823 123.205L46.851 123.037C46.6016 122.78 46.553 122.783 46.2313 122.64C45.9701 121.975 47.16 121.063 47.6282 120.606C49.2539 120.742 50.9547 121.087 52.0229 122.431C52.3858 122.568 53.3688 122.787 53.71 122.624C55.3531 122.327 56.6908 122.07 58.2256 121.348C62.8205 119.187 60.9709 117.153 57.1664 115.989L56.9746 115.856L57.0127 115.497L56.9649 115.395C56.4289 115.259 56.0989 115.184 55.5461 115.101C54.5602 114.795 53.6065 114.437 52.6022 114.183L52.541 114.229L53.2313 114.571C52.9096 114.736 50.3194 114.973 50.0543 114.769C49.5315 114.367 49.0231 113.745 48.2207 113.898ZM52.8354 123.573C46.7989 124.55 36.7561 124.941 31.5301 121.472C31.5953 124.923 32.2014 128.506 32.5239 131.952C32.7438 134.302 32.961 136.802 33.3049 139.122C33.5293 140.636 36.7268 141.917 37.975 142.317C42.6658 143.383 47.3434 143.269 52.0707 142.488C54.3635 142.108 56.8723 141.444 58.6951 139.934C58.9965 139.685 59.5006 139.146 59.5936 138.722C60.2289 132.554 60.8547 126.305 61.1705 120.108C59.074 122.342 55.728 123.013 52.8354 123.573Z" fill="#D199B0"/>
<path d="M36.6256 115.385C37.0883 115.064 38.4076 114.827 38.9807 114.705C42.1545 114.03 44.9738 113.593 48.2207 113.898C47.7365 114.168 46.1908 113.865 45.565 113.953C45.4199 113.973 45.0268 114.24 44.8869 114.33L44.7338 114.427L44.6426 114.486C44.5648 114.372 44.4912 114.262 44.4164 114.146C44.1648 114.161 43.9414 114.345 44.0236 114.352C42.95 114.261 42.0084 114.404 40.952 114.59L41.2662 114.672L41.3133 114.826C41.0555 115.006 41.0729 114.995 40.7641 115.062L40.5531 114.904C40.1635 114.836 39.9166 114.981 39.5318 115.128C39.1686 115.03 38.0387 115.532 37.7055 115.763C36.0619 116.903 34.2596 117.94 36.3076 119.755L36.2342 119.876C35.6383 119.691 35.6023 118.94 34.7668 118.757L34.892 118.621C34.7395 118.294 34.7021 118.183 34.6025 117.833C34.9617 117.73 35.6266 117.258 35.723 116.88L35.5488 116.706C36.1811 116.677 36.6988 115.895 36.6256 115.385Z" fill="#F2E8ED"/>
<path d="M48.2207 113.898C49.023 113.745 49.5314 114.367 50.0543 114.769C50.3193 114.973 52.9096 114.736 53.2312 114.571L53.5908 114.693C53.05 114.892 52.7105 114.831 52.1541 115.098C52.7068 115.083 53.5443 115.025 54.0926 114.959C54.3777 115.043 55.0008 115.187 55.2283 115.271C55.7726 115.371 56.4812 115.546 57.0127 115.497L56.9746 115.856L57.1664 115.989C57.0803 117.244 56.2976 117.98 55.5094 118.947C53.9387 118.202 51.5683 117.887 49.8549 117.934C50.751 118.61 53.4556 118.173 55.3806 119.201C54.4801 119.802 53.3303 119.508 52.2758 119.366C51.6353 119.322 50.8338 119.261 50.2053 119.149C49.9793 119.292 50.0334 119.195 49.983 119.412C50.2603 119.651 51.789 119.512 52.3295 119.527C53.1213 119.673 53.2617 119.634 53.7711 120.268C54.2871 120.496 54.2484 120.531 54.8373 120.285L55.0619 120.432C54.6416 121.017 54.0125 121.841 53.6754 122.449L53.7099 122.624C53.3687 122.787 52.3857 122.568 52.0228 122.431C52.607 120.874 46.1953 120.041 45.3055 119.911C44.0613 119.217 43.5842 118.971 42.1904 118.554C40.3101 117.033 39.166 117.808 37.7787 119.464C38.5904 119.08 39.9769 118.299 40.7533 118.123C41.1158 118.266 41.7279 118.485 42.039 118.682C42.3902 118.809 42.4267 118.756 42.6181 119.005C42.1998 119.278 41.5892 119.317 41.8625 119.951C41.3763 120.57 41.2865 120.802 41.1414 121.579C40.1623 121.568 37.832 121.768 37.1937 121.121C37.1181 120.877 37.2174 120.713 37.3076 120.464C37.2463 120.239 37.2597 120.249 37.0941 120.088C36.8025 120.182 36.6371 120.17 36.5162 120.368C36.7676 120.644 36.7885 120.573 36.809 120.871C36.6439 121.082 36.5887 121.156 36.3947 121.338C36.1004 121.379 36.1185 121.385 35.8644 121.548C34.6619 121.661 31.8613 120.547 32.6445 119.117C32.9437 118.921 33.057 118.799 33.4109 118.814L33.7396 118.825C33.9576 118.619 33.9467 118.637 34.2404 118.561C34.4125 118.643 34.5834 118.704 34.7668 118.757C35.6023 118.94 35.6383 119.691 36.2342 119.876L36.3076 119.754C34.2596 117.94 36.0619 116.903 37.7054 115.763C38.0387 115.532 39.1685 115.03 39.5318 115.128C40.2429 115.586 40.9125 115.729 41.5332 116.257L41.6855 116.385C41.8592 116.639 41.8851 116.929 41.9478 117.237C42.4637 117.337 43.5974 117.142 44.1414 117.044C44.4127 116.829 44.7283 116.54 44.9955 116.309C45.3443 116.269 46.3687 116.314 46.4808 116.207C45.8096 116.029 45.6826 115.922 45.1394 115.501L44.9871 115.382L44.8623 115.438C45.0476 115.704 45.0808 115.695 45.1584 116.002C43.8588 116.63 43.0851 116.146 41.858 116.169C41.4937 115.791 41.1387 115.43 40.764 115.062C41.0728 114.995 41.0554 115.006 41.3133 114.826L41.2662 114.672L40.9519 114.59C42.0084 114.403 42.95 114.26 44.0236 114.352C43.9414 114.345 44.1648 114.161 44.4164 114.146C44.4912 114.261 44.5648 114.372 44.6426 114.486L44.7338 114.427L44.8869 114.33C45.0267 114.24 45.4199 113.973 45.565 113.952C46.1908 113.865 47.7365 114.168 48.2207 113.898ZM49.3232 114.528C48.4992 114.881 47.6012 115.429 47.081 116.18L47.1269 116.292L47.3258 116.239C47.8187 115.881 49.3369 115.026 49.607 114.64C49.508 114.59 49.4336 114.546 49.3232 114.528Z" fill="#D199B0"/>
<path d="M53.2312 114.571L52.541 114.229L52.6021 114.183C53.6064 114.437 54.5602 114.795 55.5461 115.102L55.2283 115.271C55.0008 115.187 54.3777 115.043 54.0926 114.96L53.5908 114.694L53.2312 114.571Z" fill="#F2E8ED"/>
<path d="M47.3258 116.239L47.127 116.292L47.0811 116.18C47.6012 115.429 48.4992 114.881 49.3232 114.528C49.4336 114.546 49.508 114.59 49.607 114.64C49.3369 115.027 47.8188 115.881 47.3258 116.239Z" fill="#F2E8ED"/>
<path d="M53.5908 114.693L54.0925 114.959C53.5443 115.026 52.7068 115.083 52.1541 115.098C52.7105 114.831 53.05 114.893 53.5908 114.693Z" fill="#D199B0"/>
<path d="M39.5319 115.128C39.9166 114.982 40.1635 114.836 40.5532 114.904L40.7641 115.062C41.1387 115.431 41.4938 115.792 41.858 116.17L41.6856 116.385L41.5332 116.257C40.9125 115.729 40.243 115.586 39.5319 115.128Z" fill="#F2E8ED"/>
<path d="M65.3611 114.826C66.9107 115.52 71.71 118.888 73.1975 119.915C75.2076 121.304 82.557 126.01 83.8744 127.707C81.9129 127.372 79.2723 126.437 77.0535 125.987C72.6799 125.099 68.8783 124.979 64.4463 124.726C64.6199 121.59 65.0758 118.001 65.3611 114.826Z" fill="#D199B0"/>
<path d="M55.546 115.101C56.0988 115.184 56.4289 115.259 56.9648 115.394L57.0126 115.497C56.4812 115.546 55.7726 115.371 55.2283 115.271L55.546 115.101Z" fill="#D199B0"/>
<path d="M41.858 116.169C43.0852 116.146 43.8588 116.63 45.1584 116.002C45.0809 115.695 45.0477 115.704 44.8623 115.438L44.9871 115.382L45.1395 115.501C45.6826 115.922 45.8096 116.029 46.4809 116.207C46.3688 116.314 45.3443 116.269 44.9955 116.31C44.7283 116.54 44.4127 116.829 44.1414 117.044C43.5975 117.142 42.4637 117.337 41.9479 117.237C41.8852 116.929 41.8592 116.639 41.6855 116.385L41.858 116.169Z" fill="#F2E8ED"/>
<path d="M36.2309 115.483L36.6256 115.385C36.6988 115.895 36.1811 116.677 35.5488 116.706C35.434 116.422 35.4629 116.54 35.4951 116.213C35.6869 115.837 35.8805 115.745 36.2309 115.483Z" fill="#F2E8ED"/>
<path d="M32.6798 117.018C33.1599 116.344 35.4345 115.524 36.2308 115.483C35.8804 115.744 35.6869 115.837 35.4951 116.213C35.4628 116.54 35.4339 116.422 35.5488 116.706L35.723 116.88C35.6265 117.258 34.9617 117.73 34.6025 117.833C34.1951 118.047 33.5652 118.356 33.1892 118.586C32.5578 118.852 32.4661 119.078 32.1117 119.688L31.8824 119.662C31.3591 119.028 32.3355 117.727 32.7304 117.207L32.6798 117.018Z" fill="#D199B0"/>
<path d="M57.1664 115.989C60.9709 117.153 62.8205 119.187 58.2256 121.348C56.6908 122.07 55.3531 122.327 53.71 122.624L53.6754 122.449C54.0125 121.841 54.6416 121.017 55.0619 120.432C55.5627 120.048 55.8844 119.508 55.5094 118.947C56.2977 117.98 57.0803 117.244 57.1664 115.989Z" fill="#F2E8ED"/>
<path d="M32.4076 120.739C30.6019 119.504 31.3221 118.155 32.6799 117.018L32.7305 117.206C32.3355 117.727 31.3592 119.028 31.8824 119.662L32.1117 119.688C32.3484 120.09 32.3557 120.121 32.3933 120.576L32.4076 120.739Z" fill="#D199B0"/>
<path d="M37.7787 119.464C39.166 117.808 40.3101 117.033 42.1904 118.554L42.039 118.682C41.7279 118.486 41.1158 118.267 40.7533 118.123C39.9769 118.299 38.5904 119.08 37.7787 119.464Z" fill="#F2E8ED"/>
<path d="M33.1892 118.587C33.5652 118.356 34.1951 118.048 34.6025 117.833C34.7021 118.183 34.7394 118.294 34.8919 118.621L34.7667 118.757C34.5833 118.705 34.4125 118.643 34.2404 118.561C33.9466 118.637 33.9576 118.619 33.7396 118.825L33.4109 118.815L33.1892 118.587Z" fill="#F2E8ED"/>
<path d="M55.3806 119.201C53.4556 118.173 50.751 118.61 49.8549 117.934C51.5683 117.887 53.9386 118.202 55.5094 118.947C55.8844 119.508 55.5627 120.048 55.0619 120.432L54.8373 120.285C54.2484 120.531 54.2871 120.496 53.7711 120.268L54.0537 120.008C54.7414 120.034 55.0511 119.81 55.4861 119.298L55.3806 119.201Z" fill="#F2E8ED"/>
<path d="M32.1117 119.688C32.4662 119.078 32.5578 118.852 33.1892 118.586L33.4109 118.814C33.057 118.799 32.9437 118.921 32.6445 119.117C31.8613 120.547 34.6619 121.661 35.8644 121.548L35.8097 121.812C36.172 122.175 37.2461 122.391 37.7666 122.278C37.8863 122.252 37.9304 122.098 37.9986 121.983C37.6513 121.412 37.0123 121.436 36.3947 121.338C36.5886 121.156 36.6439 121.082 36.809 120.871C36.7885 120.573 36.7676 120.644 36.5162 120.368C36.6371 120.17 36.8025 120.182 37.0941 120.088C37.2597 120.249 37.2463 120.239 37.3076 120.464C37.2174 120.713 37.1181 120.877 37.1937 121.121C37.832 121.768 40.1623 121.568 41.1414 121.579C41.2865 120.802 41.3763 120.57 41.8625 119.951C42.7129 119.173 44.1845 119.961 45.3054 119.911C46.1953 120.041 52.607 120.874 52.0228 122.431C50.9547 121.087 49.2539 120.742 47.6281 120.606C47.1599 121.063 45.9701 121.975 46.2312 122.64L46.2379 122.769L46.1381 122.841L45.975 122.738C45.8289 122.21 45.8838 122.349 46.0308 121.745C46.3984 121.367 46.7234 121.059 47.1097 120.704C46.6797 120.468 46.2967 120.17 45.7849 120.317C45.6908 120.345 45.6013 120.386 45.5076 120.414C44.3156 120.776 42.7623 118.966 41.782 120.54C41.6002 120.832 41.5066 121.079 41.4855 121.421C41.5818 121.637 41.5922 121.626 41.767 121.792C41.3738 121.825 39.1008 121.925 38.9181 122.042L38.8814 122.227L38.5949 122.358C38.6094 123.251 42.9441 122.963 43.6492 123.014C44.141 123.003 44.3937 122.756 44.8119 122.476C44.1226 123.391 43.9357 123.273 42.8402 123.321C39.1302 123.123 35.6049 122.819 32.4076 120.739L32.3933 120.576C32.3556 120.121 32.3484 120.09 32.1117 119.688Z" fill="#F2E8ED"/>
<path d="M42.1904 118.554C43.5841 118.971 44.0613 119.217 45.3054 119.911C44.1845 119.961 42.7129 119.173 41.8625 119.952C41.5892 119.317 42.1998 119.278 42.6181 119.006C42.4267 118.756 42.3902 118.809 42.039 118.682L42.1904 118.554Z" fill="#D199B0"/>
<path d="M52.3295 119.527C51.7891 119.512 50.2604 119.651 49.983 119.412C50.0334 119.195 49.9793 119.292 50.2053 119.149C50.8338 119.261 51.6354 119.322 52.2758 119.366L52.3295 119.527Z" fill="#D199B0"/>
<path d="M55.3806 119.201L55.4861 119.298C55.0511 119.81 54.7414 120.034 54.0537 120.008L53.7711 120.268C53.2617 119.634 53.1213 119.673 52.3295 119.527L52.2758 119.366C53.3302 119.508 54.4801 119.802 55.3806 119.201Z" fill="#D199B0"/>
<path d="M46.0309 121.745L45.5071 122.026C44.7286 122.067 44.2446 122.501 43.6493 123.014C42.9442 122.964 38.6094 123.251 38.595 122.358L38.8815 122.227L38.9182 122.043C39.1008 121.925 41.3739 121.825 41.767 121.792C41.5922 121.627 41.5819 121.637 41.4856 121.421C41.5067 121.079 41.6002 120.832 41.7821 120.54C42.7624 118.966 44.3157 120.777 45.5077 120.415C45.6014 120.386 45.6909 120.345 45.785 120.318C46.2967 120.17 46.6797 120.468 47.1098 120.704C46.7235 121.059 46.3985 121.367 46.0309 121.745Z" fill="#D199B0"/>
<path d="M52.8353 123.573C55.7279 123.013 59.074 122.342 61.1705 120.108C60.8547 126.305 60.2289 132.554 59.5935 138.722C59.5006 139.146 58.9965 139.685 58.6951 139.934C56.8722 141.444 54.3634 142.108 52.0707 142.488C47.3433 143.269 42.6658 143.383 37.975 142.317C38.332 141.828 38.698 141.37 39.0677 140.894C42.7166 136.193 46.3135 131.454 50.1236 126.879C51.0342 125.786 51.8756 124.625 52.8353 123.573Z" fill="#F2E8ED"/>
<path d="M35.8645 121.548C36.1186 121.385 36.1004 121.379 36.3948 121.338C37.0124 121.436 37.6514 121.413 37.9987 121.983C37.9305 122.098 37.8864 122.252 37.7667 122.278C37.2461 122.391 36.1721 122.175 35.8098 121.812L35.8645 121.548Z" fill="#D199B0"/>
<path d="M31.5302 121.472C36.7561 124.941 46.7989 124.55 52.8354 123.573C51.8757 124.625 51.0342 125.786 50.1237 126.879C46.3135 131.454 42.7167 136.193 39.0678 140.894C38.6981 141.37 38.3321 141.828 37.9751 142.317C36.7268 141.917 33.5294 140.636 33.305 139.122C32.961 136.801 32.7438 134.302 32.5239 131.952C32.2014 128.506 31.5954 124.923 31.5302 121.472Z" fill="#F2E8ED"/>
<path d="M45.507 122.026L46.0308 121.745C45.8838 122.349 45.8289 122.21 45.975 122.738L46.1381 122.841L46.2379 122.77L46.2312 122.64C46.5529 122.783 46.6015 122.78 46.851 123.037L46.8822 123.205C46.4918 123.652 43.4453 123.482 42.8402 123.321C43.9357 123.273 44.1226 123.391 44.8119 122.477C45.0808 122.333 45.3324 122.246 45.507 122.026Z" fill="#D199B0"/>
<path d="M43.6492 123.014C44.2445 122.501 44.7285 122.066 45.507 122.026C45.3324 122.246 45.0808 122.333 44.8119 122.477C44.3937 122.756 44.141 123.003 43.6492 123.014Z" fill="#F2E8ED"/>
<path d="M30.6186 123.265C30.8205 124.67 30.9369 126.414 31.0809 127.849L31.7543 134.158C32.2637 139.284 31.7168 141.255 37.2348 143.342C36.758 143.89 36.1799 144.7 35.8182 145.33C33.9336 144.636 31.9432 143.781 30.7819 142.076C30.4141 136.396 29.4377 130.448 29.0914 124.879C29.4883 124.539 30.5039 123.738 30.6186 123.265Z" fill="#F2E8ED"/>
<path d="M64.4463 124.726C68.8783 124.979 72.6799 125.099 77.0535 125.987C79.2723 126.437 81.9129 127.372 83.8744 127.707L83.9914 127.78C85.077 128.437 85.6549 128.046 85.6582 129.433C85.6344 131.257 85.2238 138.125 84.2164 139.186C83.1111 140.35 79.2857 141.133 79.2728 144.747C79.2605 148.147 82.3986 149.527 85.4285 149.555C91.0975 149.287 93.3123 148.081 95.248 142.946C96.1963 143.342 98.1549 142.923 98.6441 143.472C98.8494 143.445 98.8232 143.451 99.0293 143.389C96.9769 145.569 95.8041 148.65 98.4258 150.854C102.198 154.025 109.021 152.33 111.663 148.587C113.96 149.397 115.268 149.468 117.692 149.579C117.829 149.886 117.991 150.28 118.14 150.571L118.073 150.672C116.766 152.682 115.918 154.614 114.33 156.534C113.794 157.181 111.179 160.176 111.014 160.615C108.943 161.979 107.806 162.884 106.954 165.298C106.912 165.323 106.868 165.347 106.826 165.373C106.205 165.756 105.154 167.42 104.543 168.061C103.358 169.302 102.084 170.428 100.725 171.474C99.3588 172.526 97.9486 173.505 96.3986 174.271C89.0363 177.911 78.2178 178.743 70.2131 177.184C63.7795 175.931 57.5793 173.045 53.835 167.463C53.6264 167.152 53.2828 166.75 53.217 166.377C54.7025 166.499 55.3805 166.161 56.5353 165.255C57.7439 164.306 58.9174 163.382 60.01 162.295C61.9871 162.01 63.0746 160.706 64.4576 159.376C66.026 157.953 68.7592 156.42 69.4045 154.674C69.5439 154.397 69.6551 154.145 69.7791 153.861C71.3158 153.098 72.0687 152.469 73.8643 152.266C75.835 152.043 79.7885 158.509 80.5275 158.584C80.5715 157.906 78.8449 155.946 78.3295 155.352C77.3055 154.173 76.4123 152.787 74.9832 152.084C73.0924 151.153 71.7303 152.554 69.9853 153.144L69.8301 153.196C69.624 150.94 69.3008 150.269 67.6338 148.679C68.4912 147.766 69.2225 146.323 70.1037 145.307C71.7225 147.404 75.8002 147.818 77.6855 145.904C79.499 144.063 79.1637 141.558 79.2351 139.227C76.9648 137.209 73.558 136.402 70.5912 137.712C69.2045 138.324 69.2525 139.456 69.1461 140.721C69.0055 142.39 68.9068 143.35 69.8393 144.884C69.7035 145.157 69.3295 145.545 69.116 145.834C68.4537 146.73 67.8377 147.493 67.3117 148.481C64.7539 147.581 61.5375 149.318 59.8428 151.191C58.5807 152.429 58.2103 152.522 57.1324 153.446C55.3637 154.645 53.0592 156.529 51.284 157.503C50.9303 155.615 51.2658 152.192 51.8332 150.358C52.1383 149.372 52.6471 148.26 52.9238 147.248L52.9455 147.165C56.0381 146.584 59.0408 145.606 61.5482 143.638C63.3574 142.217 63.168 140.917 63.2744 138.878C63.5201 134.161 64.0123 129.432 64.4463 124.726ZM91.006 156.769L82.9607 158.427C79.2217 159.163 75.5025 159.844 71.7877 160.708C70.0109 161.121 67.7799 161.428 66.1576 162.179C65.3508 162.553 64.7428 163.128 64.2496 163.863C63.4254 165.092 63.06 166.631 63.3883 168.087C63.6646 169.312 64.4346 170.492 65.5078 171.16C66.1719 171.573 66.859 171.749 67.634 171.781C69.2348 171.505 70.8381 170.933 72.3986 170.481C76.0064 169.437 79.5732 168.312 83.1603 167.208C86.2508 166.257 89.6287 165.587 92.6195 164.419C93.3498 164.134 94.0189 163.87 94.482 163.203C95.191 162.182 95.3451 160.814 95.0836 159.618C94.8721 158.65 94.1584 157.686 93.3152 157.166C92.5951 156.721 91.8252 156.651 91.006 156.769Z" fill="#F2E8ED"/>
<path d="M97.8083 135.545C98.5494 133.09 99.4988 130.408 100.516 128.048C101.5 128.86 102.37 129.567 103.283 130.459C103.219 131.633 102.934 136.504 102.595 137.579C102.557 137.51 102.483 137.401 102.4 137.38C100.97 137.023 98.88 136.594 97.8083 135.545Z" fill="#F2E8ED"/>
<path d="M157.376 131.35C156.783 133.19 161.424 136.991 158.657 141.048C158.236 141.665 157.645 142.362 156.966 142.689C155.564 143.363 153.824 143.339 152.313 143.214C151.935 143.182 151.268 143.037 150.91 143.158C150.802 143.036 150.533 142.556 150.435 142.389C154.563 139.234 155.596 135.159 156.878 130.484C157.115 130.838 157.198 130.967 157.376 131.35Z" fill="#F2E8ED"/>
<path d="M150.91 143.158C151.268 143.038 151.935 143.183 152.313 143.214C153.824 143.34 155.564 143.363 156.967 142.689C157.645 142.363 158.236 141.665 158.657 141.049C161.424 136.991 156.783 133.191 157.377 131.35C158.251 132.67 158.903 133.735 159.631 135.148C159.474 136.077 160.526 138.144 160.759 139.148C160.804 139.339 161.15 140.716 161.198 140.814C161.662 144.44 162.1 149.789 159.716 152.864C156.148 157.467 149.198 153.772 147.277 149.364L147.892 149.071C149.105 150.645 150.243 152.391 152.116 153.269C161.092 157.474 161.712 144.984 160.084 139.832C159.012 144.367 155.039 144.566 151.207 143.734L150.91 143.158Z" fill="#F2E8ED"/>
<path d="M86.6345 133.707L86.7817 133.53C87.5458 133.762 88.6243 134.428 89.4784 134.715C91.2714 135.317 92.9979 135.548 94.8888 135.47C95.4454 135.447 96.0661 135.349 96.5603 135.337C95.9421 137.358 93.8991 143.883 92.8257 145.462C91.6259 147.227 89.6204 147.778 87.6368 148.117C87.4888 147.05 87.2354 145.477 88.2837 144.788C88.806 144.444 89.4192 143.638 88.439 143.437C86.1739 144.063 86.1495 146.467 86.2552 148.335C83.9429 148.376 82.2265 148.622 82.4243 145.626C82.5302 144.024 83.3804 144.354 84.012 143.337C84.0601 142.919 84.1028 143.031 83.9612 142.68L83.7216 142.596C81.5153 142.945 81.1513 145.175 81.1522 146.994C78.8079 143.062 82.4149 141.37 85.4751 140.25C85.8442 139.298 86.5397 134.867 86.6345 133.707Z" fill="#F2E8ED"/>
<path d="M104.337 133.681C104.934 133.741 106.26 134.651 106.912 134.877C110.046 135.961 112.217 135.717 115.313 135.342C114.764 136.979 114.191 138.599 113.656 140.248C112.852 142.727 112.183 145.404 110.842 147.659C109.582 149.776 107.461 150.604 105.168 151.136C104.937 149.256 105.166 148.999 106.134 147.344C105.994 146.921 105.992 146.757 105.52 146.763C103.943 147.596 103.797 149.741 103.934 151.298C101.375 151.536 99.4238 150.97 100.652 147.8C100.867 147.245 101.455 147.113 101.506 146.353C101.334 145.997 101.458 146.134 101.12 145.929C100.76 145.917 100.588 146.074 100.323 146.315C99.1839 147.352 99.2142 148.578 99.149 149.989C96.5519 146.342 99.3441 144.126 102.626 142.876C103.411 140.569 104.051 136.102 104.337 133.681Z" fill="#F2E8ED"/>
<path d="M159.631 135.147C160.303 136.399 161.225 138.211 161.713 139.542L161.628 139.779L161.508 139.822L161.346 139.325C160.966 140.199 161.409 140.246 161.26 140.763L161.198 140.813C161.15 140.716 160.804 139.339 160.759 139.148C160.526 138.144 159.474 136.077 159.631 135.147Z" fill="url(#paint3_linear_352_3292)"/>
<path d="M97.8085 135.545C98.8802 136.594 100.97 137.023 102.4 137.38C102.483 137.401 102.557 137.51 102.595 137.58C102.5 138.304 102.372 138.893 102.217 139.608C100.083 139.495 98.8183 139.187 96.8022 138.603C97.1511 137.604 97.4788 136.555 97.8085 135.545Z" fill="#F2E8ED"/>
<path d="M69.8392 144.884C68.9068 143.35 69.0054 142.39 69.146 140.721C69.2525 139.456 69.2044 138.324 70.5912 137.712C73.558 136.402 76.9648 137.209 79.2351 139.227C79.1636 141.558 79.499 144.063 77.6855 145.904C75.8001 147.818 71.7224 147.404 70.1037 145.307C70.1197 145.099 70.0982 145.166 69.9744 144.925L69.8392 144.884ZM72.6466 137.629C71.7915 137.771 70.5355 138.064 70.0083 138.808C69.8185 139.076 69.7595 139.367 69.8203 139.69C69.9464 140.362 70.4945 140.839 71.0433 141.189C72.5162 142.129 74.2369 142.416 75.9533 142.251C76.8646 142.062 78.0746 141.8 78.6376 140.985C78.8283 140.709 78.888 140.376 78.8179 140.049C78.6878 139.443 78.1681 138.993 77.6605 138.688C76.24 137.832 74.2929 137.406 72.6466 137.629ZM69.7064 140.475C69.5648 141.988 69.4042 143.72 70.4458 144.977C71.2681 145.969 72.6742 146.497 73.9331 146.582C75.1369 146.663 76.5105 146.311 77.4201 145.486C77.5869 145.335 77.7373 145.163 77.8859 144.994C78.5113 143.931 78.7165 143.073 78.7716 141.852C76.5117 142.678 74.1783 143.198 71.8839 142.145C71.0083 141.743 70.3458 141.193 69.7064 140.475Z" fill="#D199B0"/>
<path d="M75.9533 142.251C74.2369 142.416 72.5162 142.129 71.0433 141.189C70.4945 140.839 69.9465 140.362 69.8203 139.69C69.7596 139.367 69.8185 139.076 70.0084 138.808C70.5355 138.065 71.7916 137.771 72.6467 137.629C74.2929 137.407 76.24 137.832 77.6605 138.688C78.1681 138.993 78.6879 139.443 78.818 140.049C78.8881 140.376 78.8283 140.709 78.6377 140.985C78.0746 141.8 76.8646 142.062 75.9533 142.251ZM73.6951 138.739C73.0211 138.671 72.1547 138.564 71.5015 138.707L71.3969 138.819C71.765 139.107 73.1017 139.093 73.5701 138.992L73.3221 139.328L73.367 139.453C73.966 139.397 74.3394 139.186 74.9049 139.277C75.1199 139.533 75.05 139.759 75.1517 140.189L75.3269 140.148C75.5519 139.944 75.5588 139.956 75.6994 139.692C75.7096 138.674 74.4713 138.777 73.6951 138.739Z" fill="#F2E8ED"/>
<path d="M73.5701 138.992C73.1017 139.093 71.765 139.107 71.3969 138.819L71.5015 138.707C72.1547 138.563 73.0211 138.671 73.6951 138.739L73.5701 138.992Z" fill="#D199B0"/>
<path d="M73.6951 138.739C74.4712 138.777 75.7095 138.673 75.6994 139.692C75.5587 139.956 75.5519 139.943 75.3269 140.148L75.1517 140.188C75.05 139.759 75.1199 139.532 74.9048 139.276C74.3394 139.186 73.966 139.397 73.3669 139.453L73.322 139.327L73.5701 138.991L73.6951 138.739Z" fill="#D199B0"/>
<path d="M161.713 139.542C166.193 151.281 158.677 158.297 148.523 162.482C148.164 162.262 147.512 162.028 147.095 161.839C143.794 160.344 140.346 157.351 139.727 153.611C139.697 153.428 139.698 153.491 139.571 153.338C140.907 152.877 146.129 150.215 147.277 149.364C149.198 153.772 156.148 157.467 159.716 152.864C162.1 149.789 161.662 144.439 161.198 140.813L161.26 140.763C161.409 140.246 160.966 140.199 161.346 139.325L161.508 139.822L161.628 139.78L161.713 139.542Z" fill="#F2E8ED"/>
<path d="M95.248 142.946C95.658 141.861 96.0477 140.785 96.4373 139.692C98.4812 140.35 99.7258 140.616 101.902 140.873L101.601 141.867C100.656 142.377 99.9172 142.789 99.0293 143.389C98.8232 143.451 98.8494 143.445 98.6441 143.472C98.1549 142.923 96.1963 143.342 95.248 142.946Z" fill="#F2E8ED"/>
<path d="M151.207 143.734C155.039 144.566 159.012 144.367 160.084 139.832C161.712 144.984 161.092 157.474 152.116 153.269C150.243 152.391 149.105 150.645 147.892 149.071C150.455 147.792 151.704 146.822 151.207 143.734Z" fill="#F2E8ED"/>
<path d="M77.886 144.994C77.7373 145.163 77.587 145.335 77.4202 145.486C76.5106 146.311 75.137 146.663 73.9332 146.582C72.6743 146.497 71.2682 145.969 70.4459 144.977C69.4043 143.72 69.5649 141.988 69.7065 140.475C70.3459 141.193 71.0084 141.743 71.884 142.145C74.1784 143.198 76.5118 142.678 78.7717 141.852C78.7166 143.073 78.5114 143.931 77.886 144.994ZM70.1979 142.456C70.2332 142.769 70.2661 142.969 70.5094 143.198C71.2247 143.872 73.6184 144.1 74.5323 144.027C74.4795 143.88 74.4834 143.766 74.3358 143.688C73.612 143.31 72.4084 143.309 71.5834 143.07C71.0721 142.922 70.6772 142.655 70.1979 142.456ZM71.6385 144.354C71.9166 144.721 72.2176 145.105 72.6985 145.188C73.0122 145.243 73.295 145.106 73.5741 144.983L73.5688 144.871C73.4086 144.835 73.2684 144.816 73.1045 144.803C72.6235 144.765 72.0969 144.511 71.6385 144.354Z" fill="#F2E8ED"/>
<path d="M114.358 141.831C115.104 141.692 115.688 141.577 116.272 141.059C117.484 141.208 118.683 141.501 119.882 141.732C121.275 142 122.689 142.221 124.065 142.57C122.577 143.109 120.91 143.676 119.643 144.639C118.392 145.59 117.742 146.804 117.537 148.355L115.845 148.144C115.784 148.072 115.78 148.08 115.752 147.973C115.501 147.012 116.325 146.332 116.747 145.58C116.877 145.349 116.892 145.222 116.829 144.971C116.65 144.82 116.496 144.739 116.252 144.754C116.013 144.768 115.806 144.911 115.638 145.07C114.814 145.858 114.567 146.852 114.526 147.941C113.794 147.766 113.071 147.555 112.347 147.351C113.298 145.552 113.822 143.783 114.358 141.831Z" fill="#F2E8ED"/>
<path d="M74.5323 144.027C73.6184 144.1 71.2246 143.872 70.5094 143.198C70.266 142.968 70.2332 142.769 70.1979 142.456C70.6772 142.655 71.0721 142.921 71.5834 143.07C72.4084 143.309 73.6119 143.31 74.3358 143.688C74.4834 143.765 74.4795 143.88 74.5323 144.027Z" fill="#D199B0"/>
<path d="M73.574 144.983C73.2949 145.106 73.0121 145.243 72.6984 145.188C72.2175 145.104 71.9166 144.721 71.6384 144.354C72.0968 144.511 72.6234 144.765 73.1044 144.803C73.2683 144.816 73.4085 144.835 73.5687 144.87L73.574 144.983Z" fill="#D199B0"/>
<path d="M69.8393 144.884L69.9745 144.925C70.0983 145.166 70.1198 145.099 70.1038 145.307C69.2225 146.323 68.4913 147.766 67.6338 148.679L67.3118 148.481C67.8377 147.492 68.4538 146.73 69.1161 145.834C69.3295 145.545 69.7036 145.157 69.8393 144.884Z" fill="#D199B0"/>
<path d="M59.8428 151.192C61.5375 149.318 64.7539 147.581 67.3117 148.482L67.6338 148.679C69.3008 150.269 69.624 150.94 69.8301 153.196L69.7791 153.861C69.6551 154.145 69.5439 154.397 69.4045 154.674C68.3242 155.903 66.4076 157.575 65.0664 158.516L64.8824 158.485L64.8229 158.316C64.2461 155.407 62.2689 153.453 59.6025 152.297C59.625 151.971 59.7594 151.518 59.8428 151.192Z" fill="#D199B0"/>
<path d="M118.14 150.571C119.45 152.134 120.713 152.646 122.736 152.772C125.019 152.913 127.589 152.486 129.864 152.266C134.411 151.825 138.657 151.213 143.14 150.411C139.557 152.362 134.409 153.89 130.464 154.891C123.874 156.563 117.143 157.44 111.014 160.615C111.179 160.175 113.794 157.181 114.33 156.534C115.918 154.614 116.766 152.682 118.073 150.672L118.14 150.571Z" fill="#F2E8ED"/>
<path d="M57.1324 153.446C58.2104 152.522 58.5807 152.429 59.8428 151.191C59.7594 151.518 59.625 151.971 59.6026 152.297L58.975 152.656C58.069 152.741 57.5772 153.632 56.7369 154.076L57.1324 153.446Z" fill="#D199B0"/>
<path d="M69.83 153.196L69.9853 153.144C71.7302 152.554 73.0923 151.153 74.9832 152.084C76.4123 152.787 77.3054 154.173 78.3294 155.352C78.8449 155.946 80.5714 157.906 80.5275 158.584C79.7884 158.509 75.8349 152.043 73.8642 152.266C72.0687 152.469 71.3158 153.098 69.7791 153.861L69.83 153.196Z" fill="#D199B0"/>
<path d="M58.975 152.656L59.6025 152.297C62.2689 153.453 64.2461 155.406 64.8228 158.316C64.7074 158.659 64.5969 158.733 64.2738 158.928L64.1844 158.904C63.9385 158.382 63.7728 157.762 63.4687 157.143C62.4326 155.035 60.8189 153.978 58.975 152.656Z" fill="#F2E8ED"/>
<path d="M56.7369 154.076C57.5771 153.632 58.0689 152.741 58.975 152.656C60.8189 153.978 62.4326 155.035 63.4687 157.143C63.7728 157.762 63.9384 158.382 64.1843 158.904C63.9857 159.658 60.7384 161.733 59.9955 162.193L59.7183 162.185C59.4732 161.194 59.4261 160.435 59.021 159.417C58.349 157.729 57.0767 156.068 55.3894 155.32C55.5138 154.991 56.4052 154.34 56.7369 154.076Z" fill="#D199B0"/>
<path d="M139.026 153.571L139.571 153.338C139.698 153.491 139.697 153.428 139.727 153.611C140.346 157.35 143.794 160.344 147.095 161.839C147.512 162.027 148.164 162.262 148.523 162.482C148.185 162.619 147.849 162.763 147.502 162.874C143.467 161.496 139.643 157.931 139.026 153.571Z" fill="#F2E8ED"/>
<path d="M51.284 157.503C53.0592 156.528 55.3637 154.645 57.1324 153.446L56.7369 154.076C56.4053 154.34 55.5139 154.991 55.3895 155.32C53.7738 156.62 52.0606 157.491 50.4912 158.71C47.1233 161.325 51.4004 167.002 54.7719 165.906C55.3826 165.708 59.2197 162.716 59.7184 162.185L59.9955 162.193L60.01 162.295C58.9174 163.382 57.744 164.306 56.5354 165.254C55.3805 166.161 54.7026 166.499 53.217 166.377C53.1969 166.369 53.1768 166.36 53.1566 166.351C49.7713 165.945 47.5264 161.412 49.8438 158.668C50.2748 158.158 50.6484 157.912 51.284 157.503Z" fill="#D199B0"/>
<path d="M129.597 156.259C132.915 155.585 135.832 154.455 139.026 153.572C139.643 157.931 143.467 161.496 147.502 162.875C144.551 164.002 141.367 164.976 138.248 165.489C138.187 165.323 138.142 165.193 137.947 165.119C134.932 163.985 131.822 162.072 130.217 159.192C129.67 158.209 129.606 157.353 129.597 156.259Z" fill="#F2E8ED"/>
<path d="M64.8228 158.316L64.8824 158.485L65.0664 158.516C66.4076 157.575 68.3242 155.903 69.4045 154.674C68.7592 156.42 66.026 157.953 64.4576 159.376L64.2738 158.929C64.5969 158.733 64.7074 158.659 64.8228 158.316Z" fill="#D199B0"/>
<path d="M59.7184 162.185C59.2198 162.716 55.3827 165.708 54.7719 165.906C51.4005 167.001 47.1233 161.325 50.4913 158.71C52.0606 157.491 53.7739 156.62 55.3895 155.32C57.0768 156.067 58.3491 157.729 59.0212 159.417C59.4262 160.435 59.4733 161.194 59.7184 162.185Z" fill="#F2E8ED"/>
<path d="M128.981 156.465L129.597 156.259C129.606 157.352 129.67 158.209 130.217 159.192C131.822 162.072 134.932 163.984 137.947 165.119C138.142 165.192 138.187 165.322 138.248 165.489L136.857 165.787C133.366 164.495 128.528 160.64 128.981 156.465Z" fill="#F2E8ED"/>
<path d="M108.198 167.614C105.495 160.633 124.636 157.442 128.981 156.465C128.528 160.64 133.366 164.495 136.857 165.787C135.04 166.142 133.222 166.504 131.431 166.979C130.064 167.341 128.713 167.814 127.334 168.118C124.87 165.38 121.401 163.321 117.761 162.72C115.251 162.305 112.68 162.588 110.591 164.124C109.345 165.039 108.434 166.036 108.198 167.614Z" fill="#F2E8ED"/>
<path d="M67.634 171.781C66.859 171.749 66.1719 171.573 65.5078 171.16C64.4346 170.492 63.6647 169.311 63.3883 168.087C63.06 166.631 63.4254 165.092 64.2496 163.863C64.7428 163.128 65.3508 162.553 66.1576 162.179C67.7799 161.428 70.0109 161.121 71.7877 160.708C75.5025 159.844 79.2217 159.163 82.9607 158.427L91.0061 156.769C91.8252 156.651 92.5951 156.721 93.3152 157.166C94.1584 157.686 94.8721 158.65 95.0836 159.618C95.3451 160.814 95.191 162.182 94.482 163.203C94.0189 163.87 93.3498 164.134 92.6195 164.419C89.6287 165.587 86.2508 166.257 83.1604 167.208C79.5732 168.312 76.0064 169.437 72.3986 170.481C70.8381 170.933 69.2348 171.505 67.634 171.781ZM80.9904 159.546L81.9273 160.536C82.073 160.786 82.102 160.868 82.2955 161.084C82.7271 162.022 82.9514 162.559 83.14 163.577L83.2064 164.189C83.2336 164.881 83.1314 165.635 83.0584 166.329C85.602 165.698 88.1328 164.873 90.6717 164.211C91.3898 164.011 92.1342 163.822 92.8178 163.529C94.9652 162.607 94.9469 159.108 93.0734 157.908C92.7314 157.672 91.9766 157.351 91.5439 157.416C88.0937 157.935 84.4133 158.923 80.9904 159.546ZM72.193 161.592C70.8951 162.072 68.6404 162.428 67.1545 162.869C69.8732 164.603 71.0033 166.749 70.2586 169.981C71.8264 169.596 73.4295 169.219 74.9848 168.797C76.7873 168.156 80.5201 167.331 81.9494 166.699C83.0459 164.245 82.242 161.147 79.8643 159.756C78.9018 159.951 77.8971 160.275 76.927 160.493C75.3355 160.85 73.7701 161.163 72.193 161.592ZM66.6543 163.719C66.4695 163.555 66.3689 163.511 66.1264 163.468C65.6717 163.572 65.3982 163.891 65.1545 164.273C64.4717 165.34 64.183 166.683 64.4861 167.921C64.7217 168.883 65.2436 169.869 66.1402 170.358C66.7295 170.68 67.6127 170.844 68.2602 170.616C68.4145 170.562 68.5553 170.482 68.7004 170.408C68.7594 170.378 68.8191 170.349 68.8785 170.32C69.0143 170.182 69.1373 170.039 69.2299 169.868C69.7385 168.929 69.7211 167.851 69.3854 166.859C68.9191 165.481 67.9361 164.379 66.6543 163.719Z" fill="#D199B0"/>
<path d="M81.9274 160.536L80.9905 159.546C84.4133 158.923 88.0938 157.935 91.544 157.416C91.9766 157.351 92.7315 157.672 93.0735 157.908C94.9469 159.108 94.9653 162.607 92.8178 163.529C92.1342 163.822 91.3899 164.011 90.6717 164.211C88.1329 164.873 85.602 165.698 83.0584 166.329C83.1315 165.635 83.2336 164.881 83.2065 164.189C85.042 163.629 87.0684 163.174 88.9291 162.668C90.1297 162.342 91.8069 162.074 92.9083 161.546C93.8133 160.203 93.5483 158.288 91.6124 158.325C90.6469 158.344 89.1635 158.822 88.1784 159.057L81.9274 160.536Z" fill="#F2E8ED"/>
<path d="M81.9272 160.536L88.1782 159.057C89.1634 158.822 90.6468 158.344 91.6122 158.325C93.5481 158.288 93.8132 160.203 92.9081 161.547C91.8067 162.074 90.1296 162.342 88.929 162.668C87.0683 163.174 85.0419 163.629 83.2063 164.189L83.1399 163.577C84.872 163.181 86.6685 162.611 88.4065 162.19C89.5866 161.88 90.7839 161.65 91.9581 161.318C92.6874 161.111 92.939 160.591 92.9468 159.874C92.7614 159.424 92.1142 158.816 91.6427 158.918C88.639 159.568 85.2079 160.174 82.2954 161.084C82.1019 160.868 82.0729 160.786 81.9272 160.536Z" fill="#D199B0"/>
<path d="M64.1843 158.904L64.2738 158.929L64.4576 159.376C63.0746 160.706 61.9871 162.01 60.0099 162.295L59.9955 162.193C60.7385 161.733 63.9857 159.658 64.1843 158.904Z" fill="#D199B0"/>
<path d="M82.2954 161.084C85.2079 160.174 88.639 159.568 91.6427 158.918C92.1142 158.816 92.7614 159.424 92.9468 159.874C92.939 160.591 92.6874 161.111 91.9581 161.318C90.7839 161.65 89.5866 161.88 88.4065 162.19C86.6685 162.611 84.872 163.181 83.1399 163.577C82.9513 162.559 82.7271 162.022 82.2954 161.084Z" fill="#F2E8ED"/>
<path d="M72.1929 161.592C73.77 161.163 75.3355 160.85 76.9269 160.493C77.897 160.275 78.9017 159.951 79.8642 159.756C82.2419 161.147 83.0458 164.245 81.9493 166.699C80.52 167.331 76.7872 168.156 74.9847 168.797L74.9931 168.472C75.0649 165.104 74.4675 163.974 72.1929 161.592Z" fill="#F2E8ED"/>
<path d="M67.1545 162.869C68.6405 162.428 70.8952 162.072 72.193 161.592C74.4676 163.974 75.0651 165.104 74.9932 168.472L74.9848 168.797C73.4295 169.219 71.8264 169.596 70.2586 169.981C71.0034 166.749 69.8733 164.603 67.1545 162.869Z" fill="#D199B0"/>
<path d="M108.198 167.614C108.434 166.036 109.345 165.039 110.591 164.124C112.68 162.588 115.251 162.305 117.761 162.72C121.401 163.321 124.87 165.38 127.334 168.118L126.32 168.471C124.723 166.653 122.662 165.298 120.422 164.395C117.852 163.36 114.594 162.889 111.984 164.052C110.675 164.635 109.475 165.828 108.958 167.171C108.888 167.354 108.835 167.509 108.728 167.676C108.629 167.831 108.506 167.809 108.335 167.849L108.198 167.614Z" fill="#F2E8ED"/>
<path d="M108.335 167.849C108.506 167.809 108.629 167.831 108.728 167.675C108.835 167.509 108.888 167.354 108.958 167.171C109.475 165.828 110.675 164.635 111.984 164.051C114.594 162.889 117.852 163.36 120.422 164.395C122.662 165.298 124.723 166.653 126.32 168.471C125.302 168.904 124.254 169.287 123.213 169.665C119.372 171.058 114.898 172.196 111.001 170.348C109.951 169.85 108.735 168.987 108.335 167.849Z" fill="#F2E8ED"/>
<path d="M66.6544 163.719C66.8606 164.451 68.4815 165.425 68.9011 167.027C69.247 168.348 68.7216 169.317 68.8786 170.32C68.8192 170.349 68.7595 170.378 68.7005 170.408C68.5554 170.482 68.4145 170.562 68.2602 170.616C67.6128 170.844 66.7296 170.68 66.1403 170.358C65.2436 169.869 64.7218 168.883 64.4862 167.921C64.1831 166.683 64.4718 165.34 65.1546 164.273C65.3983 163.891 65.6718 163.573 66.1264 163.468C66.369 163.511 66.4696 163.555 66.6544 163.719Z" fill="#D199B0"/>
<path d="M68.8785 170.32C68.7215 169.317 69.2469 168.348 68.901 167.027C68.4814 165.425 66.8605 164.451 66.6543 163.719C67.9361 164.38 68.9191 165.481 69.3854 166.859C69.7211 167.851 69.7385 168.929 69.2299 169.868C69.1373 170.039 69.0143 170.182 68.8785 170.32Z" fill="#F2E8ED"/>
<defs>
<linearGradient id="paint0_linear_352_3292" x1="115.29" y1="62.6973" x2="115.28" y2="64.5067" gradientUnits="userSpaceOnUse">
<stop stop-color="#86423B"/>
<stop offset="1" stop-color="#695149"/>
</linearGradient>
<linearGradient id="paint1_linear_352_3292" x1="123.502" y1="74.3173" x2="125.25" y2="71.9407" gradientUnits="userSpaceOnUse">
<stop stop-color="#6C4642"/>
<stop offset="1" stop-color="#655553"/>
</linearGradient>
<linearGradient id="paint2_linear_352_3292" x1="76.4059" y1="72.7781" x2="77.2488" y2="73.8952" gradientUnits="userSpaceOnUse">
<stop stop-color="#725550"/>
<stop offset="1" stop-color="#5D5354"/>
</linearGradient>
<linearGradient id="paint3_linear_352_3292" x1="161.56" y1="138.442" x2="159.436" y2="137.437" gradientUnits="userSpaceOnUse">
<stop stop-color="#F9C9BC"/>
<stop offset="1" stop-color="#EFDCD6"/>
</linearGradient>
</defs>
</svg>
