<svg width="72" height="70" viewBox="0 0 72 70" fill="none" xmlns="http://www.w3.org/2000/svg">
<g opacity="0.3">
<path d="M23.1863 7.77075C23.2482 7.79681 23.325 7.83426 23.4177 7.89087C23.7749 8.10883 24.2595 8.53477 24.7878 9.24048C25.8865 10.7082 26.6173 12.6304 26.8035 13.9202V13.9211C27.0137 15.3781 26.9255 17.1564 26.491 18.4338C26.3065 18.9762 26.1128 19.2638 26.0007 19.3948C25.8166 19.3236 25.5531 19.1736 25.2078 18.8528C24.5069 18.2016 23.7438 17.0756 23.1677 15.5559C21.918 12.2589 22.2301 9.1754 23.1531 7.81274C23.1643 7.79621 23.1765 7.7831 23.1863 7.77075Z" stroke="#B8798E" stroke-width="10"/>
<path d="M48.9822 7.89648C49.3184 8.3676 49.7395 9.42347 49.8025 11.0508C49.9322 14.4014 48.5266 17.6936 46.366 19.1748C46.3297 19.1897 46.2687 19.2134 46.1755 19.249C46.1668 19.2391 46.1565 19.2297 46.1472 19.2188C45.8436 18.8595 45.4993 18.1863 45.2869 17.2686L45.2039 16.8604C44.9651 15.4848 45.2692 13.0109 46.3455 10.7568C47.2793 8.80133 48.2725 8.02133 48.8835 7.76855C48.9083 7.79841 48.9412 7.83908 48.9822 7.89648Z" stroke="#B8798E" stroke-width="10"/>
<path d="M6.87988 26.1981C7.98775 26.1017 9.37821 26.5135 10.8867 27.745C12.3974 28.9783 13.6905 30.7857 14.4355 32.6718C15.2078 34.6267 15.1725 36.0721 14.9219 36.7977C14.8127 37.1136 14.6014 37.6303 13.3965 37.9569C9.13196 37.6345 6.25739 34.5363 5.30273 31.0604C4.80459 29.2465 4.99649 27.8597 5.33398 27.1376C5.54874 26.6783 5.85262 26.2994 6.87988 26.1981Z" stroke="#B8798E" stroke-width="10"/>
<path d="M65.2168 26.1581C65.2504 26.1529 65.5705 26.1232 66.0811 26.577C66.5457 26.9901 66.8295 27.5257 66.9268 27.9491L66.957 28.1229C67.1905 30.1842 66.4581 32.5135 64.8604 34.5067C63.273 36.487 61.1519 37.7286 59.1631 38.0155C57.8013 38.1343 57.6824 37.7066 57.6426 37.6425C57.3612 37.1929 57.0144 35.9739 57.3965 34.0184C58.1835 29.9912 61.1894 26.5625 64.9336 26.1942L65.0762 26.1796L65.2168 26.1581Z" stroke="#B8798E" stroke-width="10"/>
<path d="M35.9089 38.0444C37.2169 38.0439 38.8434 39.0401 39.4363 40.7173V40.7183C39.495 40.8848 39.5604 41.1021 39.658 41.4839C39.6925 41.6193 39.9406 42.6349 40.0681 43.1128C40.4671 44.6079 41.1251 46.6723 42.5505 48.9185C44.1319 51.4104 45.9691 52.9321 47.2283 53.8726L45.7068 56.0894C45.8486 56.1867 45.9864 56.2813 46.1033 56.3608C46.2259 56.4443 46.3271 56.5123 46.4236 56.5786C46.6164 56.7111 46.738 56.7984 46.8289 56.8657C46.9938 56.9878 46.9846 56.994 46.9207 56.9282L48.8308 55.0688C50.1584 56.4837 50.0007 58.4155 48.8777 59.5288L48.8054 59.5991L48.7429 59.6616C48.7227 59.6765 48.6779 59.7068 48.6033 59.7456C48.4542 59.8232 48.2467 59.9023 48.0037 59.9517C47.7605 60.001 47.5519 60.0065 47.4089 59.9946C47.3607 59.9906 47.3281 59.9836 47.3093 59.98C47.1516 59.9086 46.965 59.8136 46.6296 59.6187C46.4128 59.4926 45.5082 58.9459 44.738 58.5454C42.5973 57.4323 40.0824 56.6004 36.782 56.5103C31.5606 56.2497 27.8948 58.2858 26.1218 59.2495C25.1613 59.7716 24.9382 59.8865 24.7302 59.9692C23.8607 60.0006 23.4624 59.7706 23.2468 59.6069C22.9468 59.3792 22.5913 58.941 22.3816 58.2573C22.1714 57.5721 22.1795 56.8634 22.3601 56.2788C22.5059 55.8071 22.7952 55.2995 23.4275 54.812C28.3895 51.7058 31.2502 46.9763 32.3953 41.8872C32.8186 40.0058 33.4825 39.1225 33.8757 38.7554C34.1607 38.4893 34.6745 38.1226 35.9089 38.0444Z" stroke="#B8798E" stroke-width="20"/>
</g>
</svg>
