<svg width="260" height="260" viewBox="0 0 260 260" fill="none" xmlns="http://www.w3.org/2000/svg">
<g opacity="0.3">
<path d="M81.6358 0.111539C34.4908 4.25502 49.7449 92.5393 96.9674 90.9796C119.524 88.1111 127.46 62.6833 124.355 44.091C121.276 25.6594 104.501 -1.97432 81.6358 0.111539Z" fill="#D199B0"/>
<path d="M175.201 0.170849C127.981 4.69821 120.392 92.8957 169.131 90.9689C208.921 82.7306 221.682 24.0778 190.753 3.86295C187.156 1.51151 179.591 -0.629158 175.201 0.170849Z" fill="#D199B0"/>
<path d="M50.2749 145C-2.31925 144.005 -17.573 74.6817 23.4109 71.1132C63.4347 67.8344 97.0052 136.818 50.2749 145Z" fill="#D199B0"/>
<path d="M216.04 144.824C171.586 149.059 185.272 75.6225 232.869 71.2155C245.982 69.2861 258.281 80.6251 259.731 92.6621C262.673 117.115 241.062 141.676 216.04 144.824Z" fill="#D199B0"/>
<path d="M131.454 246.416C114.687 245.269 108.58 258.964 91.1044 259.84C44.5737 262.173 26.6975 197.037 64.3534 168.707C73.6759 162.841 79.2803 153.687 81.6746 142.259C87.1873 115.945 103.084 98.2255 128.568 97.0149C149.751 96.4576 169.416 111.614 176.548 133.321C179.414 142.046 179.444 149.168 184.242 157.286C189.347 165.925 196.069 167.87 202.378 174.937C220.496 195.179 220.695 227.062 202.051 246.909C190.913 259.255 171.195 263.613 156.592 256.758C146.893 252.206 143.561 246.649 131.454 246.416Z" fill="#D199B0"/>
</g>
</svg>
